<svg width="600" height="600" viewBox="0 0 600 600" fill="none" xmlns="http://www.w3.org/2000/svg">
<path d="M447.54 516H528.254L600 600H508.524L447.54 516ZM374 404H444V600H374V404ZM424.94 455.8V404L494.892 404C519.525 404 539.494 406.893 554.8 412.68C570.345 418.467 581.705 426.4 588.879 436.48C596.293 446.56 600 458.133 600 471.2C600 484.08 596.293 495.653 588.879 505.92C581.705 516 570.345 523.933 554.8 529.72C539.494 535.507 519.525 538.4 494.892 538.4L424.94 538.4V492.2H487.717C494.414 492.2 499.914 491.547 504.219 490.24C508.524 488.747 511.752 486.6 513.905 483.8C516.296 481 517.492 477.733 517.492 474C517.492 470.08 516.296 466.813 513.905 464.2C511.752 461.4 508.524 459.347 504.219 458.04C499.914 456.547 494.414 455.8 487.717 455.8L424.94 455.8Z" fill="#FCFDFF"/>
<path d="M54.555 600V551H370.178V600H54.555ZM54.555 453V404H370.178V453H54.555ZM54.555 523V475.4H370.178V523H54.555ZM0 404H70V600H0V404Z" fill="#FCFDFF"/>
<path d="M530 202H600V398L402 308.4V398H332V202L530 291.6V202Z" fill="#FCFDFF"/>
<path d="M205.244 327.44V285.627H327.3C329.05 301.307 327.519 315.941 322.707 329.531C318.113 343.12 310.566 355.054 300.067 365.333C289.568 375.612 276.334 383.627 260.366 389.376C244.398 395.125 226.024 398 205.244 398C185.995 398 168.386 395.648 152.418 390.944C136.45 386.24 122.56 379.532 110.748 370.821C99.155 362.11 90.0773 351.657 83.5151 339.461C77.1717 327.266 74 313.676 74 298.693C74 283.71 77.3905 270.295 84.1714 258.448C90.9523 246.427 100.358 236.235 112.389 227.872C124.638 219.509 138.856 213.15 155.043 208.795C171.448 204.265 189.276 202 208.525 202C226.024 202 241.445 204.091 254.788 208.272C268.35 212.453 280.162 218.028 290.224 224.997C300.504 231.792 309.473 239.458 317.129 247.995L249.866 272.037C245.929 266.288 240.789 261.236 234.445 256.88C228.102 252.524 219.462 250.347 208.525 250.347C197.806 250.347 187.963 252.176 178.995 255.835C170.027 259.319 162.808 264.633 157.34 271.776C152.09 278.919 149.465 287.892 149.465 298.693C149.465 309.321 151.871 318.468 156.683 326.133C161.714 333.799 168.605 339.636 177.354 343.643C186.323 347.65 196.713 349.653 208.525 349.653C215.087 349.653 220.993 349.131 226.243 348.085C231.492 347.04 235.976 345.559 239.695 343.643C243.632 341.726 247.023 339.374 249.866 336.587C252.71 333.799 255.116 330.75 257.085 327.44H205.244Z" fill="#FCFDFF"/>
<path d="M0 202H70V398H0V202Z" fill="#FCFDFF"/>
<path d="M441.203 118.645C445.815 124.743 451.12 130.057 457.117 134.587C463.114 138.942 469.572 142.252 476.491 144.517C483.641 146.782 490.791 147.915 497.941 147.915C503.937 147.915 509.012 147.044 513.163 145.301C517.315 143.385 519.39 140.423 519.39 136.416C519.39 133.977 518.237 131.886 515.931 130.144C513.855 128.402 509.588 126.398 503.13 124.133C496.672 121.868 486.87 118.82 473.723 114.987C467.957 113.244 461.269 110.892 453.657 107.931C446.277 104.969 439.127 101.136 432.208 96.432C425.519 91.728 419.868 85.9787 415.255 79.184C410.873 72.3893 408.682 64.3751 408.682 55.1413C408.682 43.12 412.949 33.0151 421.483 24.8267C430.016 16.6382 441.318 10.4533 455.387 6.27199C469.456 2.09066 484.909 0 501.746 0C519.967 0 535.535 2.09066 548.451 6.27199C561.598 10.4533 572.323 15.68 580.626 21.952C589.16 28.224 595.618 34.496 600 40.768L543.608 64.288C539.918 59.9324 535.766 56.5351 531.153 54.096C526.771 51.4827 522.273 49.5662 517.661 48.3467C513.048 47.1271 508.55 46.5173 504.168 46.5173C498.863 46.5173 494.481 47.2142 491.021 48.608C487.792 50.0018 486.178 52.1795 486.178 55.1413C486.178 58.8 488.484 61.8489 493.097 64.288C497.941 66.5529 504.283 68.7307 512.125 70.8213C519.967 72.7378 528.616 75.0027 538.072 77.616C547.759 80.2293 556.409 83.3653 564.02 87.024C571.631 90.5084 578.089 94.6027 583.394 99.3067C588.929 104.011 593.081 109.324 595.848 115.248C598.616 120.997 600 127.444 600 134.587C600 144.692 597.232 153.664 591.697 161.504C586.161 169.17 578.666 175.529 569.209 180.581C559.984 185.634 549.489 189.467 537.726 192.08C525.964 194.693 513.855 196 501.4 196C484.102 196 467.957 193.822 452.965 189.467C438.204 185.285 425.404 179.449 414.563 171.957C403.723 164.466 395.535 156.103 390 146.869L441.203 118.645Z" fill="#FCFDFF"/>
<path d="M252.583 196V147L386 147V196L252.583 196ZM252.583 49V4.673e-05L386 3.21269e-05V49L252.583 49ZM252.583 119V71.4L386 71.4V119L252.583 119ZM198 4.673e-05L268 0V196L198 196V4.673e-05Z" fill="#FCFDFF"/>
<path d="M0 0H70V196L0 196V0ZM80.2256 196H44.3429V142.8H77.3083C82.9484 142.8 88.6857 142.333 94.5203 141.4C100.355 140.467 105.703 138.507 110.565 135.52C115.428 132.533 119.317 128.053 122.235 122.08C125.346 116.107 126.902 108.08 126.902 98C126.902 87.92 125.346 79.8933 122.235 73.92C119.317 67.9467 115.428 63.4667 110.565 60.48C105.703 57.4934 100.355 55.5334 94.5203 54.6C88.6857 53.6667 82.9484 53.2 77.3083 53.2H44.3429V0H80.2256C103.953 0 124.277 3.92 141.197 11.76C158.312 19.6 171.342 30.8 180.289 45.36C189.43 59.92 194 77.4667 194 98C194 118.347 189.43 135.893 180.289 150.64C171.342 165.2 158.312 176.4 141.197 184.24C124.277 192.08 103.953 196 80.2256 196Z" fill="#FCFDFF"/>
</svg>
