<svg width="600" height="600" viewBox="0 0 600 600" fill="none" xmlns="http://www.w3.org/2000/svg">
<path d="M476.548 516H541.905L600 600H525.929L476.548 516ZM417 404L487 404V600L417 600V404ZM458.248 455.8V404H479H502.69C522.636 404 538.806 406.893 551.2 412.68C563.787 418.467 572.986 426.4 578.795 436.48C584.798 446.56 587.8 458.133 587.8 471.2C587.8 484.08 584.798 495.653 578.795 505.92C572.986 516 563.787 523.933 551.2 529.72C538.806 535.507 522.636 538.4 502.69 538.4H458.248V492.2H496.881C502.303 492.2 506.757 491.547 510.243 490.24C513.729 488.747 516.343 486.6 518.086 483.8C520.022 481 520.99 477.733 520.99 474C520.99 470.08 520.022 466.813 518.086 464.2C516.343 461.4 513.729 459.347 510.243 458.04C506.757 456.547 502.303 455.8 496.881 455.8H458.248Z" fill="#0D0D0D"/>
<path d="M310.246 600V551H413V600H310.246ZM310.246 453V404H413V453H310.246ZM310.246 523V475.4H413V523H310.246ZM266 404L336 404V600H266V404Z" fill="#0D0D0D"/>
<path d="M0 404L70 404V600L0 600V404ZM41.4189 453V404H176.537C196.566 404 212.803 406.707 225.248 412.12C237.888 417.533 247.124 425.28 252.958 435.36C258.986 445.253 262 457.2 262 471.2C262 485.013 258.986 496.96 252.958 507.04C247.124 517.12 237.888 524.867 225.248 530.28C212.803 535.693 196.566 538.4 176.537 538.4L41.4189 538.4V489.4H176.537C184.51 489.4 190.538 487.813 194.621 484.64C198.705 481.467 200.747 476.987 200.747 471.2C200.747 465.413 198.705 460.933 194.621 457.76C190.538 454.587 184.51 453 176.537 453L41.4189 453Z" fill="#0D0D0D"/>
<path d="M440.809 298.693C440.809 307.579 442.652 315.419 446.338 322.213C450.025 329.008 455.263 334.322 462.054 338.155C468.844 341.813 476.993 343.643 486.5 343.643C496.007 343.643 504.156 341.813 510.946 338.155C517.737 334.322 522.975 329.008 526.661 322.213C530.348 315.419 532.191 307.579 532.191 298.693C532.191 289.634 530.445 281.794 526.953 275.173C523.46 268.379 518.319 263.152 511.528 259.493C504.932 255.66 496.589 253.744 486.5 253.744C476.993 253.744 468.844 255.66 462.054 259.493C455.263 263.152 450.025 268.379 446.338 275.173C442.652 281.794 440.809 289.634 440.809 298.693ZM373 298.693C373 284.059 375.91 270.818 381.731 258.971C387.551 247.124 395.603 236.932 405.886 228.395C416.169 219.858 428.198 213.324 441.973 208.795C455.748 204.265 470.591 202 486.5 202C502.797 202 517.834 204.265 531.609 208.795C545.384 213.324 557.413 219.858 567.696 228.395C577.979 236.932 585.934 247.124 591.56 258.971C597.187 270.818 600 284.059 600 298.693C600 313.328 597.187 326.743 591.56 338.939C586.128 350.96 578.367 361.413 568.278 370.299C558.189 379.184 546.16 385.979 532.191 390.683C518.416 395.561 503.185 398 486.5 398C469.814 398 454.487 395.561 440.518 390.683C426.743 385.979 414.811 379.184 404.722 370.299C394.633 361.413 386.775 350.96 381.149 338.939C375.716 326.743 373 313.328 373 298.693Z" fill="#0D0D0D"/>
<path d="M198 202H268V346.2H369V398H198V202Z" fill="#0D0D0D"/>
<path d="M44.2456 398V349L194 349V398L44.2456 398ZM44.2456 251V202L194 202V251L44.2456 251ZM44.2456 321V273.4L194 273V320.6L44.2456 321ZM0 202H70V398H0V202Z" fill="#0D0D0D"/>
<path d="M485 89.376L524.304 0H600L485 196L370 0H445.696L485 89.376Z" fill="#0D0D0D"/>
<path d="M242.246 196V147L366 147V196L242.246 196ZM242.246 49.0005V0.000556989L366 0V48.9999L242.246 49.0005ZM242.246 119V71.4003L366 71.3998V119L242.246 119ZM198 0.000556989L268 0.000441074V196L198 196V0.000556989Z" fill="#0D0D0D"/>
<path d="M0 0L70 0V196H0V0ZM80.2256 196H44.3429V142.8H77.3083C82.9484 142.8 88.6857 142.333 94.5203 141.4C100.355 140.467 105.703 138.507 110.565 135.52C115.428 132.533 119.317 128.053 122.235 122.08C125.346 116.107 126.902 108.08 126.902 98C126.902 87.92 125.346 79.8933 122.235 73.92C119.317 67.9467 115.428 63.4667 110.565 60.48C105.703 57.4934 100.355 55.5334 94.5203 54.6C88.6857 53.6667 82.9484 53.2 77.3083 53.2H44.3429V0H80.2256C103.953 0 124.277 3.92 141.197 11.76C158.312 19.6 171.342 30.8 180.289 45.36C189.43 59.92 194 77.4667 194 98C194 118.347 189.43 135.893 180.289 150.64C171.342 165.2 158.312 176.4 141.197 184.24C124.277 192.08 103.953 196 80.2256 196Z" fill="#0D0D0D"/>
</svg>
