<svg width="254" height="148" viewBox="0 0 254 148" fill="none" xmlns="http://www.w3.org/2000/svg">
<path d="M67.5992 140.99V130.937H92.1133V140.99H67.5992ZM78.8074 122.411L73.5402 134.691L74.5814 137.872L69.9266 146.716H54.6149L78.8074 98.9972L103 146.716H87.6883L83.156 138.317L84.0747 134.691L78.8074 122.411Z" fill="#2C3ED0"/>
<path d="M40.526 99.3563H54.6149V146.716L24.0889 124.035V146.716H10V97.1011L40.526 119.782V99.3563Z" fill="#2C3ED0"/>
<path d="M49.2515 95.205V83.9074H89.1757V95.205H49.2515ZM49.2515 61.3122V50.0145H89.1757V61.3122H49.2515ZM49.2515 77.4516V66.4768L89.1757 66.8227V77.7976L49.2515 77.4516ZM39.848 50.0145H52.8396V95.205H39.848V50.0145Z" fill="#2C3ED0"/>
<path d="M10 50.0145H23.6874V83.2618H41.4189V95.205H10V50.0145Z" fill="#2C3ED0"/>
<path d="M61.2398 3.39043L75.4583 0.71582L83.1166 44.424L68.8982 47.0986L61.2398 3.39043Z" fill="#2C3ED0"/>
<path d="M27.1877 29.6033L24.9046 47.8025H10.0011L18.2456 1.03194L37.9055 25.0854L57.5655 1.03194L65.81 47.8025H50.9065L48.6234 29.6033L37.9055 43.6663L27.1877 29.6033Z" fill="#2C3ED0"/>
<circle cx="126.189" cy="74.2157" r="14.5" fill="#FE6D55"/>
<path d="M212.213 124.16C212.213 126.452 212.711 128.383 213.708 129.953C214.747 131.481 216.097 132.627 217.759 133.391C219.462 134.155 221.331 134.537 223.367 134.537C225.444 134.537 227.23 134.261 228.725 133.71C230.221 133.158 231.529 132.479 232.651 131.672C233.814 130.823 234.853 129.953 235.767 129.062V143.45C234.063 144.639 232.194 145.636 230.159 146.443C228.165 147.291 225.568 147.716 222.37 147.716C218.589 147.716 215.141 147.164 212.026 146.061C208.91 144.957 206.252 143.365 204.05 141.286C201.848 139.206 200.145 136.723 198.94 133.837C197.736 130.951 197.133 127.725 197.133 124.16C197.133 120.595 197.736 117.369 198.94 114.483C200.145 111.597 201.848 109.114 204.05 107.034C206.252 104.954 208.91 103.363 212.026 102.259C215.141 101.155 218.589 100.604 222.37 100.604C225.568 100.604 228.165 101.007 230.159 101.813C232.194 102.62 234.063 103.638 235.767 104.869V119.258C234.853 118.366 233.814 117.496 232.651 116.647C231.529 115.798 230.221 115.119 228.725 114.61C227.23 114.058 225.444 113.782 223.367 113.782C221.331 113.782 219.462 114.164 217.759 114.928C216.097 115.692 214.747 116.86 213.708 118.43C212.711 119.958 212.213 121.868 212.213 124.16ZM230.47 87.234L219.254 96.7838L212.4 93.6005L221.747 83.4141L230.47 87.234Z" fill="#2C3ED0"/>
<path d="M212.65 24.9287H226.9V76.3054H212.65V24.9287Z" fill="#2C3ED0"/>
<path d="M164.517 48.4513H178.86V93.6578H164.517V48.4513ZM192.267 48.4513H208.231L191.207 69.6338L209.167 93.6578H192.579L174.931 70.0858L192.267 48.4513Z" fill="#2C3ED0"/>
<path d="M210.023 24.3082C210.023 26.4761 210.416 28.389 211.203 30.0469C211.99 31.7047 213.108 33.0012 214.557 33.9364C216.007 34.8291 217.746 35.2754 219.775 35.2754C221.804 35.2754 223.543 34.8291 224.993 33.9364C226.442 33.0012 227.56 31.7047 228.347 30.0469C229.134 28.389 229.527 26.4761 229.527 24.3082C229.527 22.0977 229.154 20.1848 228.409 18.5695C227.664 16.9117 226.566 15.6364 225.117 14.7437C223.709 13.8085 221.928 13.3409 219.775 13.3409C217.746 13.3409 216.007 13.8085 214.557 14.7437C213.108 15.6364 211.99 16.9117 211.203 18.5695C210.416 20.1848 210.023 22.0977 210.023 24.3082ZM195.55 24.3082C195.55 20.7374 196.171 17.5068 197.413 14.6162C198.656 11.7256 200.374 9.23883 202.569 7.1559C204.764 5.07297 207.331 3.47889 210.271 2.37366C213.211 1.26843 216.379 0.71582 219.775 0.71582C223.253 0.71582 226.463 1.26843 229.403 2.37366C232.343 3.47889 234.91 5.07297 237.105 7.1559C239.3 9.23883 240.998 11.7256 242.199 14.6162C243.4 17.5068 244 20.7374 244 24.3082C244 27.8789 243.4 31.1521 242.199 34.1277C241.039 37.0608 239.383 39.6113 237.229 41.7793C235.076 43.9472 232.509 45.6051 229.527 46.7528C226.587 47.9431 223.336 48.5382 219.775 48.5382C216.214 48.5382 212.942 47.9431 209.961 46.7528C207.021 45.6051 204.474 43.9472 202.321 41.7793C200.167 39.6113 198.49 37.0608 197.289 34.1277C196.13 31.1521 195.55 27.8789 195.55 24.3082Z" fill="#2C3ED0"/>
<path d="M149 28.5352V19.6836H172.112L172.117 28.5352H149ZM153.06 1.34808H167.365V46.5545H153.06V1.34808ZM170.238 46.5545H162.555V34.2842H169.614C170.821 34.2842 172.05 34.1766 173.299 33.9613C174.549 33.746 175.694 33.294 176.735 32.6051C177.776 31.9163 178.609 30.883 179.233 29.5052C179.9 28.1275 180.233 26.2762 180.233 23.9513C180.233 21.6264 179.9 19.7751 179.233 18.3974C178.609 17.0197 177.776 15.9864 176.735 15.2975C175.694 14.6086 174.549 14.1566 173.299 13.9413C172.05 13.726 170.821 13.6184 169.614 13.6184H162.555V1.34808H170.238C175.319 1.34808 179.671 2.25221 183.294 4.06047C186.958 5.86872 189.749 8.45195 191.664 11.8101C193.621 15.1683 194.6 19.2154 194.6 23.9513C194.6 28.6442 193.621 32.6912 191.664 36.0925C189.749 39.4507 186.958 42.0339 183.294 43.8422C179.671 45.6504 175.319 46.5545 170.238 46.5545Z" fill="#2C3ED0"/>
<path d="M167.099 120.32C165.721 118.125 164.464 116.215 163.33 114.589L153.117 118.857C154.657 120.97 155.994 123.002 157.129 124.953C158.264 126.823 159.358 128.773 160.412 130.805C161.546 132.837 162.681 135.154 163.816 137.755L174.394 133C173.421 131.131 172.286 129.098 170.989 126.904C169.773 124.709 168.477 122.515 167.099 120.32Z" fill="#2C3ED0"/>
<path d="M183.148 113.492C181.77 111.379 180.473 109.509 179.257 107.884L169.166 112.639C170.706 114.589 172.043 116.5 173.178 118.369C174.394 120.157 175.569 122.067 176.704 124.1C177.919 126.05 179.176 128.326 180.473 130.927L190.686 125.928C189.794 124.059 188.659 122.067 187.281 119.954C185.984 117.759 184.607 115.605 183.148 113.492Z" fill="#2C3ED0"/>
</svg>
