<svg width="749" height="564" viewBox="0 0 749 564" fill="none" xmlns="http://www.w3.org/2000/svg">
<g opacity="0.3" filter="url(#filter0_f_528_761)">
<path fill-rule="evenodd" clip-rule="evenodd" d="M119.173 519.215C118.391 518.403 117.698 517.61 117.079 516.822C120.007 520.216 123.88 522.545 128.493 525.161C132.032 526.94 135.735 528.516 139.544 529.815C132.317 527.514 125.464 524.056 119.173 519.215ZM134.339 237.206C133.452 215.872 137.741 193.628 150.325 176.871C149.343 178.062 148.387 179.302 147.422 180.585C137.032 196.711 133.501 217.422 134.339 237.206ZM156.356 170.739C158.127 169.458 159.982 168.669 162.659 168.197C161.686 168.264 160.633 168.371 159.458 168.504C158.353 169.204 157.325 169.951 156.356 170.739ZM171.062 169.328C172.879 170.111 174.549 171.217 176.352 172.641C175.813 172.162 175.117 171.58 174.158 170.777C173.029 170.181 172.014 169.704 171.062 169.328ZM228.913 196.487C217.862 185.636 206.315 180.322 189.915 179.545C205.923 180.304 217.849 185.116 228.913 196.487ZM234.843 203.33C235.9 205.01 236.59 206.711 237.158 208.936L237.661 208.599C239.301 207.525 240.961 206.473 242.642 205.444L242.408 205.564L238.727 207.472L236.128 204.874C235.7 204.359 235.272 203.844 234.843 203.33ZM463.544 154.34C466.208 153.193 468.891 152.007 471.606 150.8C472.839 150.254 474.026 149.728 475.17 149.222L475.074 149.264C471.223 150.939 467.375 152.621 463.544 154.34ZM571.703 232.933C569.82 231.867 567.984 230.741 566.202 229.553L564.779 229.499L564.687 229.496L563.404 229.447C563.6 229.486 563.796 229.528 563.991 229.572C565.174 229.841 566.34 230.214 567.484 230.74C568.88 231.493 570.286 232.224 571.703 232.933ZM544.292 229.303C544.4 229.954 544.497 230.596 544.581 231.229L544.595 231.335C545.687 239.664 544.689 246.581 540.699 254.558C544.28 247.398 545.899 240.715 544.922 232.72C544.816 232.135 544.709 231.558 544.602 230.984C544.498 230.421 544.394 229.861 544.292 229.303ZM523.318 265.924C508.537 266.934 495.92 265.251 481.734 260.728C478.085 259.573 474.431 258.436 470.769 257.318L468.016 256.477C465.717 255.804 463.412 255.227 461.101 254.726C463.129 255.221 465.151 255.779 467.191 256.394C469.088 256.972 470.989 257.542 472.891 258.103L473.236 258.204C476.933 259.292 480.629 260.379 484.303 261.54C497.52 265.733 509.577 266.863 523.318 265.924ZM360.235 299.003C356.879 301.705 354.032 304 351.548 306.027C350.351 307.789 348.871 309.274 347.28 310.705C347.569 310.803 347.856 310.904 348.141 311.008C350.411 307.683 352.711 305.368 355.792 302.727L357.957 300.914L360.235 299.003ZM369.549 330.144C371.03 333.111 372.299 336.004 373.297 339.029C373.065 338.039 372.824 337.052 372.576 336.066C371.664 334.016 370.657 332.037 369.549 330.144ZM375.493 348.479C375.944 350.478 376.578 351.749 378.505 353.54L378.687 353.66L378.697 353.667L378.709 353.674L378.886 353.791C377.101 352.218 376.173 350.588 375.493 348.479ZM389.469 365.941C388.462 362.92 387.528 360.564 385.616 358.533C387.571 360.532 388.466 362.931 389.469 365.941ZM258.393 460.061C258.614 461.457 258.717 462.945 258.788 464.578C258.494 472.859 254.878 477.355 249.093 482.816C252.882 479.645 256.012 475.745 258.22 471.154C258.844 467.218 259.115 463.571 258.393 460.061ZM246.521 484.788C242.511 487.47 238.585 488.62 234.347 488.95C236.013 489.004 237.737 488.91 239.783 488.609C242.165 487.535 244.423 486.26 246.521 484.788ZM166.92 533.406C166.557 533.442 166.194 533.475 165.831 533.504L165.955 533.503C166.28 533.472 166.602 533.44 166.92 533.406ZM502.716 203.226C502.782 203.248 502.849 203.27 502.915 203.293C502.788 203.387 502.658 203.481 502.526 203.575C501.767 203.677 501.023 203.759 500.287 203.823C501.303 203.672 501.961 203.506 502.569 203.178C502.618 203.194 502.667 203.21 502.716 203.226ZM500.287 203.823C499.746 203.903 499.103 203.979 498.313 204.072L497.204 203.994C498.222 203.969 499.245 203.914 500.287 203.823ZM474.631 237.758L474.337 237.834L474.661 237.804C474.77 237.97 474.886 238.133 475.004 238.297C475.02 238.32 475.037 238.344 475.054 238.367L475.061 238.376L475.072 238.392L475.118 238.456C475.132 238.476 475.147 238.496 475.161 238.516C475.175 238.535 475.189 238.555 475.202 238.574L475.156 238.477L475.129 238.418L475.11 238.377L475.1 238.357L475.081 238.316L475.062 238.274L475.042 238.232L475.036 238.219C474.969 238.074 474.903 237.93 474.839 237.788L474.806 237.714L474.631 237.758ZM475.219 238.61C475.221 238.614 475.223 238.619 475.225 238.623L475.219 238.61ZM416.805 167.146C413.767 167.119 410.721 167.137 407.662 167.205L412.058 167.286C413.661 167.279 415.242 167.232 416.805 167.146Z" fill="#3A3D4C"/>
<path fill-rule="evenodd" clip-rule="evenodd" d="M361.33 298.096L360.235 299.003L360.899 298.468L361.343 298.1C381.915 281.048 416.35 252.505 444.552 252.19C416.387 252.491 382.153 280.848 361.33 298.096ZM461.101 254.726C463.129 255.221 465.151 255.779 467.191 256.394C469.088 256.972 470.989 257.542 472.891 258.103L473.236 258.204C476.933 259.292 480.629 260.379 484.303 261.54C497.52 265.733 509.577 266.863 523.318 265.924C508.537 266.934 495.92 265.251 481.734 260.728C478.085 259.573 474.431 258.436 470.769 257.318L468.016 256.477C465.717 255.804 463.412 255.227 461.101 254.726ZM540.699 254.558C544.28 247.398 545.899 240.715 544.922 232.72C544.741 231.722 544.637 231.166 544.544 230.665C544.466 230.25 544.395 229.865 544.292 229.303C544.4 229.954 544.497 230.596 544.581 231.229L544.595 231.335C545.687 239.664 544.689 246.581 540.699 254.558ZM563.404 229.447C563.6 229.486 563.796 229.528 563.991 229.572C565.174 229.841 566.34 230.214 567.484 230.74C568.88 231.493 570.286 232.224 571.703 232.933C569.82 231.867 567.984 230.741 566.202 229.553L564.779 229.499L564.687 229.496L563.404 229.447ZM475.17 149.222L475.074 149.264C471.223 150.939 467.375 152.621 463.544 154.34C466.208 153.193 468.891 152.007 471.606 150.8C472.839 150.254 474.026 149.728 475.17 149.222ZM391.028 167.053C338.933 167.298 288.76 181.841 242.642 205.444C285.585 179.141 341.509 167.286 391.028 167.053ZM502.915 203.293C502.849 203.27 502.782 203.248 502.716 203.226C502.667 203.21 502.618 203.194 502.569 203.178C501.961 203.506 501.303 203.672 500.287 203.823C499.245 203.914 498.222 203.969 497.204 203.994L498.313 204.072C499.103 203.979 499.746 203.903 500.287 203.823C501.023 203.759 501.767 203.677 502.526 203.575C502.658 203.481 502.788 203.387 502.915 203.293ZM474.806 237.714L474.631 237.758L474.337 237.834L474.661 237.804C474.77 237.97 474.886 238.133 475.004 238.297C475.02 238.32 475.037 238.344 475.054 238.367L475.061 238.376L475.072 238.392L475.118 238.456C475.132 238.476 475.147 238.496 475.161 238.516C475.175 238.535 475.189 238.555 475.202 238.574L475.156 238.477L475.129 238.418L475.11 238.377L475.1 238.357L475.081 238.316L475.062 238.274L475.042 238.232L475.036 238.219C474.969 238.074 474.903 237.93 474.839 237.788L474.806 237.714ZM475.225 238.623L475.219 238.61C475.221 238.614 475.223 238.619 475.225 238.623ZM407.662 167.205C410.721 167.137 413.767 167.119 416.805 167.146C415.242 167.232 413.661 167.279 412.058 167.286L407.662 167.205Z" fill="#3A3D4C"/>
<path fill-rule="evenodd" clip-rule="evenodd" d="M571.703 232.933C590.629 242.397 611.373 247.819 632.515 248.208C612.193 247.834 589.794 243.17 571.703 232.933ZM520.719 141.227C507.154 136.806 491.035 142.369 478.493 147.757C504.955 136.093 506.044 136.445 520.719 141.227ZM463.544 154.34C462.42 154.824 461.299 155.302 460.18 155.771L460.942 155.515C461.808 155.121 462.676 154.73 463.544 154.34ZM502.915 203.293C502.849 203.27 502.782 203.248 502.716 203.226C502.667 203.21 502.618 203.194 502.569 203.178C501.961 203.506 501.303 203.672 500.287 203.823C501.023 203.759 501.767 203.677 502.526 203.575C502.658 203.481 502.788 203.387 502.915 203.293ZM474.806 237.714L474.631 237.758L474.337 237.834L474.661 237.804C474.77 237.97 474.886 238.133 475.004 238.297C475.02 238.32 475.037 238.344 475.054 238.367L475.061 238.376L475.072 238.392L475.118 238.456C475.132 238.476 475.147 238.496 475.161 238.516C475.175 238.535 475.189 238.555 475.202 238.574L475.156 238.477L475.129 238.418L475.11 238.377L475.1 238.357L475.081 238.316L475.062 238.274L475.042 238.232C475.04 238.228 475.038 238.223 475.036 238.219C474.969 238.074 474.903 237.93 474.839 237.788L474.806 237.714ZM475.225 238.623L475.219 238.61C475.221 238.614 475.223 238.619 475.225 238.623Z" fill="#3A3D4C"/>
<path fill-rule="evenodd" clip-rule="evenodd" d="M229.682 197.289C231.437 199.278 233.146 201.296 234.843 203.33C234.152 202.232 233.304 201.142 232.23 199.922C231.126 198.72 230.022 197.576 228.913 196.487C229.17 196.751 229.426 197.018 229.682 197.289ZM179.255 176.372L177.651 173.7C177.208 173.329 176.776 172.976 176.352 172.641C177.759 173.892 178.095 174.44 179.255 176.372ZM171.062 169.328C169.145 168.502 167.065 168.036 164.493 167.936C163.839 168.01 163.23 168.096 162.659 168.197C165.843 167.976 168.162 168.184 171.062 169.328ZM156.356 170.739C154.968 171.743 153.631 173.05 151.991 174.745C151.42 175.443 150.865 176.152 150.325 176.871C152.169 174.633 154.103 172.572 156.356 170.739ZM134.339 237.206C134.651 244.555 135.565 251.776 136.955 258.587C135.558 251.739 134.644 244.526 134.339 237.206ZM142.33 288.916C142.775 282.349 140.994 275.259 139.347 268.705L139.308 268.548C138.815 266.586 138.336 264.674 137.935 262.839L136.955 258.587C138.786 266.534 140.299 274.394 141.346 282.485C141.423 283.137 141.485 283.745 141.543 284.316C141.728 286.119 141.875 287.561 142.33 288.916Z" fill="#3A3D4C"/>
<path fill-rule="evenodd" clip-rule="evenodd" d="M540.212 177.571L540.212 177.597L540.464 177.606L540.325 177.586L540.212 177.571ZM564.779 229.499L564.687 229.496L563.404 229.447L562.945 229.43C556.659 229.225 550.45 229.179 544.292 229.303C544.4 229.954 544.497 230.596 544.581 231.229L544.595 231.335L544.598 231.359L563.991 229.572L564.779 229.499ZM474.631 237.758L474.337 237.834L474.661 237.804C474.77 237.97 474.886 238.133 475.004 238.297C475.02 238.32 475.037 238.344 475.054 238.367L475.061 238.376C475.065 238.381 475.068 238.387 475.072 238.392C475.087 238.413 475.102 238.434 475.118 238.456C475.132 238.476 475.147 238.496 475.161 238.516C475.175 238.535 475.189 238.555 475.202 238.574C475.205 238.578 475.206 238.584 475.209 238.589C475.211 238.592 475.212 238.595 475.214 238.598C475.216 238.601 475.218 238.606 475.219 238.61C475.221 238.614 475.223 238.619 475.225 238.623C475.23 238.629 475.232 238.639 475.236 238.646L475.225 238.623L475.219 238.61L475.214 238.598L475.209 238.589L475.202 238.574L475.156 238.477L475.129 238.418L475.11 238.377L475.1 238.357L475.081 238.316L475.062 238.274L475.042 238.232C475.04 238.228 475.038 238.223 475.036 238.219C474.969 238.074 474.903 237.93 474.839 237.788L474.661 237.804L474.631 237.758ZM407.662 167.205C410.721 167.137 413.767 167.119 416.805 167.146C415.242 167.232 413.661 167.279 412.058 167.286L407.662 167.205Z" fill="#3A3D4C"/>
<path fill-rule="evenodd" clip-rule="evenodd" d="M461.101 254.726C458.061 253.983 455.006 253.381 451.845 252.934L448.632 252.351C447.288 252.227 445.927 252.175 444.552 252.19C450.128 252.781 455.635 253.541 461.101 254.726ZM474.806 237.714L474.631 237.758L474.337 237.834L474.661 237.804C474.77 237.97 474.886 238.133 475.004 238.297C475.02 238.32 475.037 238.344 475.054 238.367L475.061 238.376L475.072 238.392L475.118 238.456C475.132 238.476 475.147 238.496 475.161 238.516C475.175 238.535 475.189 238.555 475.202 238.574L475.156 238.477L475.129 238.418L475.11 238.377L475.1 238.357L475.081 238.316L475.062 238.274L475.042 238.232C475.04 238.228 475.038 238.223 475.036 238.219C474.969 238.074 474.903 237.93 474.839 237.788L474.806 237.714ZM475.225 238.623L475.219 238.61C475.221 238.614 475.223 238.619 475.225 238.623Z" fill="#3A3D4C"/>
<path fill-rule="evenodd" clip-rule="evenodd" d="M502.915 203.293C502.849 203.27 502.782 203.248 502.716 203.226C502.667 203.21 502.618 203.194 502.569 203.178C501.961 203.506 501.303 203.672 500.287 203.823C499.245 203.914 498.222 203.969 497.204 203.994L498.313 204.072C499.103 203.979 499.746 203.903 500.287 203.823C501.023 203.759 501.767 203.677 502.526 203.575C502.658 203.481 502.788 203.387 502.915 203.293ZM475.225 238.623L475.219 238.61C475.221 238.614 475.223 238.619 475.225 238.623ZM474.806 237.714L474.631 237.758C474.641 237.774 474.651 237.789 474.661 237.804C474.77 237.97 474.886 238.133 475.004 238.297C475.02 238.32 475.037 238.344 475.054 238.367L475.061 238.376C475.065 238.381 475.068 238.387 475.072 238.392C475.087 238.413 475.102 238.434 475.118 238.456C475.132 238.476 475.147 238.496 475.161 238.516C475.175 238.535 475.189 238.555 475.202 238.574L475.156 238.477L475.129 238.418L475.11 238.377L475.1 238.357L475.081 238.316L475.062 238.274L475.042 238.232C475.04 238.228 475.038 238.223 475.036 238.219C474.969 238.074 474.903 237.93 474.839 237.788L474.806 237.714Z" fill="#3A3D4C"/>
<path fill-rule="evenodd" clip-rule="evenodd" d="M110.385 499.187C110.627 500.999 111.375 503.776 112.767 508.94C113.807 512.194 115.261 514.713 117.079 516.822C113.934 512.814 112.704 508.927 111.457 503.384C111.116 501.956 110.764 500.56 110.385 499.187ZM165.831 533.504C156.981 534.209 148.003 532.699 139.544 529.815C147.905 532.477 156.766 533.59 165.831 533.504ZM166.92 533.406C169.724 533.124 172.513 532.616 175.265 531.854C177.885 530.812 179.916 529.577 181.594 528.041C177.278 531.496 172.719 532.782 166.92 533.406Z" fill="#3A3D4C"/>
<path fill-rule="evenodd" clip-rule="evenodd" d="M220.52 487.836C221.071 488.132 221.789 488.255 223.468 488.542C227.424 488.957 230.984 489.212 234.347 488.95C232.031 488.876 229.828 488.517 227.032 488.04C223.534 487.509 223.086 487.441 220.52 487.836ZM246.521 484.788C247.249 484.3 247.981 483.762 248.717 483.169C248.843 483.051 248.969 482.933 249.093 482.816C248.266 483.508 247.408 484.165 246.521 484.788ZM258.393 460.061C257.908 456.999 256.855 454.383 254.321 451.67L254.116 451.67L255.621 453.456C257.063 455.628 257.931 457.817 258.393 460.061Z" fill="#3A3D4C"/>
<path fill-rule="evenodd" clip-rule="evenodd" d="M120.494 333.398C122.694 328.038 125.131 322.762 127.877 317.551C127.6 317.651 127.3 317.76 126.97 317.881C123.824 322.698 122.19 327.922 120.494 333.398Z" fill="#3A3D4C"/>
<path fill-rule="evenodd" clip-rule="evenodd" d="M502.915 203.293C502.849 203.27 502.782 203.248 502.716 203.226C502.667 203.21 502.618 203.194 502.569 203.178C501.961 203.506 501.303 203.672 500.287 203.823C499.245 203.914 498.222 203.969 497.204 203.994L498.313 204.072C499.103 203.979 499.746 203.903 500.287 203.823C501.023 203.759 501.767 203.677 502.526 203.575C502.658 203.481 502.788 203.387 502.915 203.293Z" fill="#3A3D4C"/>
<path fill-rule="evenodd" clip-rule="evenodd" d="M319.425 338.499C319.423 338.502 319.419 338.504 319.417 338.507L319.425 338.499Z" fill="#3A3D4C"/>
<path fill-rule="evenodd" clip-rule="evenodd" d="M319.425 338.499L319.417 338.507C318.942 339.215 318.483 339.899 318.029 340.556L317.999 340.599L317.986 340.618L317.971 340.641C317.967 340.645 317.963 340.651 317.96 340.656C317.947 340.675 317.934 340.693 317.921 340.712C317.916 340.72 317.911 340.727 317.905 340.735C317.868 340.789 317.83 340.844 317.792 340.897C317.794 340.895 317.791 340.9 317.792 340.897L317.733 340.983L317.723 340.997L317.711 341.014C317.715 341.008 317.719 341.003 317.723 340.997C317.726 340.992 317.73 340.987 317.733 340.983C317.753 340.954 317.773 340.926 317.792 340.897C317.83 340.844 317.868 340.789 317.905 340.735C317.909 340.73 317.918 340.717 317.921 340.712C317.933 340.695 317.948 340.673 317.96 340.656C317.963 340.651 317.967 340.645 317.971 340.641C317.976 340.633 317.981 340.625 317.986 340.618C317.991 340.612 317.995 340.605 317.999 340.599C318.009 340.585 318.019 340.571 318.029 340.556C318.483 339.899 318.942 339.215 319.417 338.507C319.419 338.504 319.423 338.502 319.425 338.499Z" fill="#3A3D4C"/>
<path fill-rule="evenodd" clip-rule="evenodd" d="M416.805 167.146C413.767 167.119 410.721 167.137 407.662 167.205L412.058 167.286C413.661 167.279 415.242 167.232 416.805 167.146ZM475.042 238.232C475.04 238.228 475.038 238.223 475.036 238.219L475.042 238.232Z" fill="#3A3D4C"/>
<path fill-rule="evenodd" clip-rule="evenodd" d="M319.425 338.499L319.417 338.507C318.942 339.215 318.483 339.899 318.029 340.556L317.999 340.599L317.986 340.618L317.971 340.641L317.96 340.656L317.921 340.712L317.905 340.735L317.792 340.897L317.733 340.983L317.723 340.997L317.711 341.014L317.659 341.089C317.676 341.064 317.694 341.039 317.711 341.014C317.715 341.008 317.719 341.003 317.723 340.997C317.726 340.992 317.73 340.987 317.733 340.983C317.753 340.954 317.773 340.926 317.792 340.897C317.83 340.844 317.868 340.789 317.905 340.735C317.911 340.727 317.916 340.72 317.921 340.712C317.934 340.693 317.947 340.675 317.96 340.656C317.963 340.651 317.967 340.645 317.971 340.641C317.976 340.633 317.981 340.625 317.986 340.618C317.991 340.612 317.995 340.605 317.999 340.599C318.009 340.585 318.019 340.571 318.029 340.556C318.483 339.899 318.942 339.215 319.417 338.507C319.419 338.504 319.423 338.502 319.425 338.499Z" fill="#3A3D4C"/>
<path fill-rule="evenodd" clip-rule="evenodd" d="M416.805 167.146C413.767 167.119 410.721 167.137 407.662 167.205L412.058 167.286C413.661 167.279 415.242 167.232 416.805 167.146Z" fill="#3A3D4C"/>
<path fill-rule="evenodd" clip-rule="evenodd" d="M319.417 338.507C318.942 339.215 318.483 339.899 318.029 340.556L317.999 340.599L317.986 340.618L317.971 340.641L317.96 340.656L317.921 340.712L317.905 340.735L317.792 340.897L317.733 340.983L317.723 340.997L317.711 341.014L317.659 341.089C317.676 341.064 317.694 341.039 317.711 341.014C317.715 341.008 317.719 341.003 317.723 340.997C317.726 340.992 317.73 340.987 317.733 340.983C317.753 340.954 317.773 340.926 317.792 340.897C317.83 340.844 317.868 340.789 317.905 340.735C317.911 340.727 317.916 340.72 317.921 340.712C317.934 340.693 317.947 340.675 317.96 340.656C317.963 340.651 317.967 340.645 317.971 340.641C317.976 340.633 317.981 340.625 317.986 340.618C317.991 340.612 317.995 340.605 317.999 340.599C318.009 340.585 318.019 340.571 318.029 340.556C318.483 339.899 318.942 339.215 319.417 338.507L319.425 338.499L319.417 338.507Z" fill="#3A3D4C"/>
<path fill-rule="evenodd" clip-rule="evenodd" d="M416.805 167.146C413.767 167.119 410.721 167.137 407.662 167.205L412.058 167.286C413.661 167.279 415.242 167.232 416.805 167.146Z" fill="#3A3D4C"/>
<path fill-rule="evenodd" clip-rule="evenodd" d="M416.805 167.146C413.767 167.119 410.721 167.137 407.662 167.205L412.058 167.286C413.661 167.279 415.242 167.232 416.805 167.146Z" fill="#3A3D4C"/>
<path fill-rule="evenodd" clip-rule="evenodd" d="M407.662 167.205C410.721 167.137 413.767 167.119 416.805 167.146C415.242 167.232 413.661 167.279 412.058 167.286L407.662 167.205Z" fill="#3A3D4C"/>
<path fill-rule="evenodd" clip-rule="evenodd" d="M475.219 238.61L475.214 238.598C475.216 238.601 475.218 238.606 475.219 238.61Z" fill="#3A3D4C"/>
<path fill-rule="evenodd" clip-rule="evenodd" d="M407.662 167.205C410.721 167.137 413.767 167.119 416.805 167.146C415.242 167.232 413.661 167.279 412.058 167.286L407.662 167.205Z" fill="#3A3D4C"/>
<path d="M117.079 516.822C120.007 520.216 123.88 522.545 128.493 525.161C132.032 526.94 135.735 528.516 139.544 529.815C147.905 532.477 156.766 533.59 165.831 533.504C166.194 533.475 166.557 533.442 166.92 533.406C172.719 532.782 177.278 531.496 181.594 528.041C182.452 527.353 183.301 526.58 184.148 525.709C184.497 525.175 184.83 524.655 185.155 524.147C187.241 520.883 188.987 518.152 192.433 515.886C199.224 512.169 204.947 506.725 210.138 501.03C210.34 500.67 210.54 500.312 210.739 499.956C213.187 495.577 215.466 491.5 219.235 488.04C219.72 487.962 220.143 487.894 220.52 487.836C223.086 487.441 223.534 487.509 227.032 488.04C229.828 488.517 232.031 488.876 234.347 488.95C238.585 488.62 242.511 487.47 246.521 484.788C247.408 484.165 248.266 483.508 249.093 482.816C254.878 477.355 258.494 472.859 258.788 464.578C258.717 462.945 258.614 461.457 258.393 460.061C257.931 457.817 257.063 455.628 255.621 453.456L254.116 451.67L253.022 450.371L255.621 446.475C263.313 435.183 269.536 423.748 272.92 410.429L273.814 406.208C280.688 405.18 287.285 404.794 294.233 404.862C322.878 405.235 355.099 405.082 378.099 385.344C383.592 379.916 389.266 374.069 389.469 365.941C388.462 362.92 387.528 360.564 385.616 358.533C385.001 357.904 384.28 357.314 383.419 356.757L381.023 355.387C380.196 354.851 379.492 354.324 378.886 353.791L378.709 353.674L378.697 353.667L378.687 353.66L378.505 353.54C376.578 351.749 375.944 350.478 375.493 348.479C375.1 347.261 374.789 345.883 374.444 344.265C374.087 342.515 373.704 340.769 373.297 339.029C372.299 336.004 371.03 333.111 369.549 330.144C365.028 322.421 358.822 316.11 350.484 312.117L347.885 311.386C347.931 311.318 347.976 311.251 348.021 311.184C348.061 311.125 348.101 311.066 348.141 311.008C347.856 310.904 347.569 310.803 347.28 310.705C348.871 309.274 350.351 307.789 351.548 306.027C354.032 304 356.879 301.705 360.235 299.003L361.33 298.096C382.153 280.848 416.387 252.491 444.552 252.19C445.927 252.175 447.288 252.227 448.632 252.351L451.845 252.934C455.006 253.381 458.061 253.983 461.101 254.726C463.412 255.227 465.717 255.804 468.016 256.477L470.769 257.318C474.431 258.436 478.085 259.573 481.734 260.728C495.92 265.251 508.537 266.934 523.318 265.924C530.243 263.616 535.918 260.091 540.699 254.558C544.689 246.581 545.687 239.664 544.595 231.335L544.581 231.229C544.497 230.596 544.4 229.954 544.292 229.303C544.235 228.956 544.174 228.607 544.11 228.255C546.489 228.36 548.869 228.468 551.247 228.59L554.181 228.742C554.8 228.768 555.418 228.788 556.034 228.808C558.531 228.89 561 228.971 563.404 229.447L564.687 229.496L564.779 229.499L563.991 229.572C565.174 229.841 566.34 230.214 567.484 230.74C568.88 231.493 570.286 232.224 571.703 232.933C590.629 242.397 611.373 247.819 632.515 248.208C660.9 248.336 686.853 240.59 707.593 220.279C708.412 219.005 708.799 218.403 708.965 217.746C709.114 217.156 709.085 216.521 709.03 215.316C705.507 207.426 698.42 201.206 691.279 196.593C674.709 187.435 659.315 188.501 641.527 192.331L637.674 193.184C637.444 190.987 637.162 188.796 636.862 186.608C635.165 177.325 631.288 172.627 623.704 167.286C614.84 164.39 607.751 165.056 599.258 168.829C579.872 177.471 561.4 178.353 540.464 177.606L540.212 177.597L540.212 177.571L540.243 174.622L540.267 170.721C540.301 166.553 540.169 163.104 539.318 159.006C535.208 150.593 529.183 145.102 520.719 141.227C507.154 136.806 491.035 142.369 478.493 147.757L477.314 148.276L475.17 149.222C474.026 149.728 472.839 150.254 471.606 150.8C468.891 152.007 466.208 153.193 463.544 154.34C462.676 154.73 461.808 155.121 460.942 155.515L460.18 155.771C427.054 166.9 426.784 166.901 391.028 167.053C338.933 167.298 288.76 181.841 242.642 205.444C240.961 206.473 239.301 207.525 237.661 208.599L237.158 208.936C236.59 206.711 235.9 205.01 234.843 203.33C233.146 201.296 231.437 199.278 229.682 197.289C229.426 197.018 229.17 196.751 228.913 196.487C217.862 185.636 206.315 180.322 189.915 179.545L185.361 179.504C181.435 179.282 181.435 179.282 179.295 176.44L179.255 176.372C178.095 174.44 177.759 173.892 176.352 172.641C174.549 171.217 172.879 170.111 171.062 169.328C168.162 168.184 165.843 167.976 162.659 168.197C159.982 168.669 158.127 169.458 156.356 170.739C154.103 172.572 152.169 174.633 150.325 176.871C137.741 193.628 133.452 215.872 134.339 237.206C134.651 244.555 135.565 251.776 136.955 258.587L137.935 262.839C138.336 264.674 138.815 266.586 139.308 268.548L139.347 268.705C140.994 275.259 142.775 282.349 142.33 288.916C142.088 292.501 141.182 295.93 139.229 299.031C134.915 305.132 131.173 311.294 127.877 317.551C125.131 322.762 122.694 328.038 120.494 333.398C114.074 349.04 109.669 365.397 105.471 382.934L104.879 385.425L102.412 385.663L99.1934 385.993C91.9655 386.716 88.8357 388.821 84.0867 394.517C80.2066 405.414 79.1077 422.452 82.7872 433.485C84.8177 435.94 86.3535 437.24 89.2948 438.498C92.1207 439.608 92.121 439.608 94.8329 441.34C96.5357 444.52 97.4054 446.144 97.8347 447.877C98.2829 449.687 98.2508 451.616 98.1851 455.559C98.3477 466.566 100.22 476.821 105.447 486.579C107.705 490.693 109.18 494.82 110.385 499.187C110.764 500.56 111.116 501.956 111.457 503.384C112.704 508.927 113.934 512.814 117.079 516.822ZM502.716 203.226C502.782 203.248 502.849 203.27 502.915 203.293C502.788 203.387 502.658 203.481 502.526 203.575C501.767 203.677 501.023 203.759 500.287 203.823C501.303 203.672 501.961 203.506 502.569 203.178C502.618 203.194 502.667 203.21 502.716 203.226ZM500.287 203.823C499.746 203.903 499.103 203.979 498.313 204.072L497.204 203.994C498.222 203.969 499.245 203.914 500.287 203.823ZM474.337 237.834L474.631 237.758L474.806 237.714L474.839 237.788L474.661 237.804L474.337 237.834ZM474.661 237.804C474.787 237.995 474.919 238.179 475.054 238.367L475.004 238.297C474.886 238.133 474.77 237.97 474.661 237.804ZM407.662 167.205C410.721 167.137 413.767 167.119 416.805 167.146C415.242 167.232 413.661 167.279 412.058 167.286L407.662 167.205Z" fill="#3A3D4C"/>
</g>
<path d="M4.04326 344.961C8.79234 339.265 11.9221 337.159 19.15 336.437C20.212 336.328 21.274 336.219 22.3683 336.107C23.1824 336.028 23.9965 335.95 24.8353 335.868C25.0306 335.047 25.226 334.225 25.4273 333.378C32.7914 302.616 40.7926 275.487 59.1858 249.475C65.8161 238.947 60.3761 224.636 57.8913 213.282C57.568 211.879 57.2447 210.476 56.9116 209.03C51.7803 183.883 53.1298 153.145 67.3787 131.029C70.937 126.299 74.373 122.142 79.4143 118.947C85.702 118.238 88.5 118.256 94.1149 121.221C97.6074 124.143 97.6074 124.143 99.252 126.883C101.392 129.725 101.392 129.725 105.318 129.948C106.821 129.961 108.323 129.975 109.871 129.988C126.251 130.765 138.356 135.785 149.638 147.732C151.837 150.223 153.963 152.761 156.085 155.317C156.943 156.175 157.8 157.032 158.684 157.915C159.898 157.286 161.113 156.656 162.364 156.008C208.546 132.333 258.801 117.742 310.984 117.496C347.013 117.344 347.013 117.344 380.899 105.958C385.589 103.827 390.307 101.762 395.031 99.7071C396.159 99.21 397.287 98.7129 398.45 98.2008C410.992 92.8128 427.111 87.2497 440.676 91.67C449.14 95.545 455.165 101.037 459.275 109.449C460.126 113.548 460.258 116.997 460.224 121.165C460.216 122.452 460.208 123.739 460.2 125.066C460.189 126.047 460.179 127.029 460.168 128.04C481.208 128.803 499.751 127.949 519.214 119.272C527.708 115.499 534.797 114.833 543.661 117.73C551.245 123.071 555.121 127.769 556.819 137.051C557.119 139.239 557.4 141.431 557.631 143.627C558.902 143.346 560.174 143.065 561.484 142.775C579.272 138.945 594.666 137.878 611.235 147.037C618.377 151.65 625.463 157.87 628.987 165.76C629.103 168.307 629.103 168.307 627.55 170.722C606.809 191.034 580.857 198.779 552.472 198.651C529.747 198.233 507.483 192 487.441 181.183C483.221 179.245 478.71 179.379 474.138 179.185C472.686 179.11 472.686 179.11 471.204 179.033C468.825 178.911 466.446 178.803 464.067 178.698C464.335 180.172 464.603 181.645 464.879 183.163C465.856 191.159 464.237 197.842 460.656 205.001C455.875 210.535 450.2 214.06 443.275 216.367C429.533 217.306 417.477 216.177 404.26 211.983C400.471 210.786 396.66 209.668 392.848 208.547C390.945 207.985 389.045 207.416 387.147 206.837C382.051 205.301 377.072 204.122 371.802 203.378C370.742 203.185 369.681 202.993 368.589 202.794C339.23 200.094 301.887 231.484 280.191 249.447C279.44 250.077 278.688 250.707 277.913 251.357C277.199 251.956 276.485 252.554 275.749 253.171C272.552 255.911 270.197 258.299 267.842 261.83C268.7 262.071 269.557 262.312 270.441 262.56C280.823 267.533 287.9 276.098 292.533 286.509C293.218 289.227 293.84 291.962 294.401 294.709C295.547 300.079 296.309 302.8 300.979 305.831C301.77 306.283 302.561 306.735 303.375 307.201C306.975 309.526 308.106 312.427 309.426 316.385C309.223 324.512 303.548 330.36 298.055 335.787C275.055 355.525 242.834 355.679 214.19 355.305C207.242 355.237 200.645 355.624 193.77 356.651C193.328 358.741 193.328 358.741 192.877 360.873C189.493 374.192 183.27 385.627 175.577 396.918C174.291 398.847 174.291 398.847 172.978 400.815C174.265 402.342 174.265 402.342 175.577 403.9C179.274 409.468 179.2 415.143 178.176 421.598C174.347 429.559 167.743 435.444 159.74 439.052C154.848 439.773 151.796 439.304 146.988 438.484C142.977 437.874 142.977 437.874 139.191 438.484C135.117 442.224 132.783 446.688 130.095 451.473C124.904 457.168 119.18 462.612 112.389 466.33C108.407 468.948 106.696 472.187 104.105 476.153C98.7664 481.641 93.3568 483.249 85.9119 483.946C68.9682 484.128 52.7327 480.127 39.1298 469.658C34.3732 464.723 32.9064 460.461 31.414 453.827C29.9869 447.86 28.3708 442.43 25.4038 437.022C20.1768 427.264 18.3043 417.009 18.1417 406.003C18.2703 398.284 18.2703 398.284 14.7895 391.783C12.0774 390.052 12.0774 390.052 9.25142 388.942C6.31007 387.683 4.77426 386.384 2.74376 383.929C-0.935729 372.895 0.163182 355.857 4.04326 344.961Z" fill="#FE6C55"/>
<path d="M74.2168 231.954C77.9536 226.031 82.0866 220.968 86.887 215.88C87.5795 215.14 88.2721 214.401 88.9856 213.639C90.986 211.51 92.9957 209.391 95.0088 207.275C96.4084 205.793 96.4084 205.793 97.8363 204.281C104.618 197.292 112.081 191.243 119.699 185.193C120.602 184.448 121.505 183.703 122.435 182.935C131.377 175.691 141.124 169.642 150.838 163.503C153.118 162.047 155.371 160.548 157.618 159.042C201.155 130.53 259.528 117.738 310.985 117.496C347.013 117.344 347.013 117.344 380.899 105.958C385.589 103.827 390.307 101.762 395.031 99.7071C396.16 99.21 397.288 98.7129 398.45 98.2008C410.992 92.8128 427.111 87.2497 440.676 91.67C449.14 95.5449 455.165 101.037 459.275 109.449C460.126 113.548 460.258 116.996 460.225 121.165C460.217 122.452 460.208 123.739 460.2 125.066C460.19 126.047 460.179 127.029 460.169 128.04C481.209 128.803 499.752 127.949 519.215 119.272C527.708 115.499 534.797 114.833 543.662 117.73C551.246 123.071 555.122 127.769 556.819 137.051C557.12 139.239 557.401 141.431 557.631 143.627C558.903 143.346 560.174 143.064 561.484 142.775C579.273 138.945 594.666 137.878 611.236 147.037C618.377 151.65 625.464 157.87 628.987 165.76C629.104 168.307 629.104 168.307 627.551 170.722C606.81 191.034 580.857 198.779 552.472 198.651C529.747 198.233 507.483 192 487.441 181.183C483.222 179.245 478.711 179.379 474.138 179.185C473.17 179.135 472.202 179.085 471.204 179.033C468.826 178.911 466.447 178.803 464.067 178.698C464.469 180.908 464.469 180.908 464.879 183.163C465.856 191.159 464.237 197.842 460.656 205.001C455.875 210.535 450.2 214.06 443.275 216.367C429.534 217.306 417.477 216.177 404.26 211.983C400.472 210.786 396.66 209.668 392.848 208.547C390.946 207.985 389.046 207.416 387.148 206.837C382.052 205.301 377.072 204.122 371.803 203.378C370.212 203.089 370.212 203.089 368.589 202.794C339.501 200.119 302.367 231.083 280.856 248.912C258.152 267.195 258.152 267.195 239.374 288.95C235.5 294.726 232.651 298.873 225.708 300.614C221.459 300.769 217.352 300.697 213.118 300.307C210.497 300.066 207.887 299.932 205.258 299.816C194.619 299.141 187.552 298.04 179.598 290.726C177.493 286.404 177.488 282.208 177.527 277.498C177.531 276.522 177.535 275.546 177.538 274.541C177.894 262.086 183.043 251.988 188.573 241.047C181.536 240.897 174.76 241.46 167.781 242.346C167.352 241.06 166.923 239.774 166.481 238.449C175.925 222.118 192.579 211.867 208.756 203.261C212.279 201.322 215.355 199.41 218.461 196.883C213.443 188.456 207.228 181.743 197.669 178.698C187.551 177.584 178.717 177.756 170.38 183.894C167.066 186.607 163.788 189.352 160.54 192.144C155.423 196.499 150.563 199.532 144.39 202.079C143.353 202.558 142.316 203.037 141.248 203.53C133.122 207.275 133.122 207.275 130.095 207.275C130.163 209.085 130.163 209.085 130.232 210.933C130.539 224.917 129.133 232.34 119.44 242.691C113.707 248.21 108.796 249.131 101.019 249.49C93.046 249.272 87.8193 247.885 82.0138 242.346C79.1632 239.031 76.6125 235.61 74.2168 231.954Z" fill="#FE6D55"/>
<path d="M81.9125 353.084C84.4633 347.645 87.2811 343.44 91.5167 339.197C95.0788 335.333 95.6004 332.49 95.74 327.263C95.5123 322.956 95.2952 320.758 93.0598 317.034C88.9842 310.244 90.5613 301.539 92.3898 294.13C94.0507 287.017 94.2462 279.987 94.4405 272.708C94.6851 264.657 94.9607 256.79 96.3086 248.84C97.126 248.822 97.9435 248.803 98.7857 248.784C108.619 248.236 115.316 245.857 122.03 238.489C127.951 230.954 128.907 225.609 129.527 216.042C129.636 214.401 129.745 212.76 129.857 211.07C129.936 209.817 130.014 208.565 130.096 207.274C131.461 206.723 132.826 206.173 134.233 205.605C144.873 201.204 153.854 196.734 162.583 189.089C164.628 187.423 166.686 185.773 168.756 184.137C170.113 183.04 170.113 183.04 171.497 181.92C179.632 176.296 188.09 176.482 197.67 177.399C205.693 179.598 212.144 185.167 217.162 191.687C218.716 195.224 218.716 195.224 219.761 198.182C218.284 198.954 216.806 199.726 215.284 200.521C197.225 210.133 178.979 220.686 167.781 238.449C167.781 239.306 167.781 240.163 167.781 241.046C178.716 240.403 178.716 240.403 189.873 239.748C186.137 248.353 186.137 248.353 184.975 251.015C181.13 259.928 178.984 267.196 178.908 276.848C178.844 278.294 178.844 278.294 178.779 279.768C178.726 285.144 179.003 287.205 182.436 291.578C188.35 296.132 192.12 297.233 199.639 297.438C201.264 297.488 202.889 297.539 204.563 297.59C206.255 297.631 207.947 297.671 209.69 297.712C211.402 297.762 213.114 297.813 214.878 297.864C219.105 297.987 223.331 298.098 227.558 298.199C228.201 299.485 228.201 299.485 228.858 300.797C228.388 301.441 227.919 302.085 227.435 302.749C215.472 319.257 204.844 336.165 195.071 354.053C191.904 351 189.803 348.099 187.68 344.23C187.112 343.21 186.544 342.191 185.959 341.14C184.675 338.466 184.675 338.466 184.675 335.868C183.817 335.868 182.959 335.868 182.076 335.868C181.927 336.613 181.777 337.358 181.624 338.126C176.89 354.533 159.934 365.297 145.898 373.258C140.074 376.429 134.11 379.258 128.065 381.98C127.091 382.42 126.117 382.859 125.113 383.312C115.348 387.555 105.639 388.92 95.0091 387.825C88.9245 385.122 85.1813 381.061 81.9125 375.354C79.0968 368.031 79.4357 360.459 81.9125 353.084Z" fill="#E6EBEF"/>
<path d="M317.223 139.73C318.624 136.923 320.032 134.12 321.451 131.322C322.012 130.212 322.573 129.102 323.152 127.958C323.716 126.845 324.281 125.731 324.862 124.584C326.437 121.46 326.437 121.46 327.619 117.648C329.069 117.675 330.52 117.702 332.015 117.729C353.875 117.634 371.843 110.009 391.563 101.243C424.822 86.5036 424.822 86.5036 440.675 91.6694C449.139 95.5443 455.164 101.036 459.274 109.448C460.125 113.547 460.257 116.996 460.224 121.164C460.212 123.095 460.212 123.095 460.199 125.065C460.189 126.047 460.178 127.028 460.168 128.039C481.208 128.802 499.751 127.948 519.214 119.272C527.707 115.498 534.796 114.832 543.661 117.729C551.245 123.07 555.121 127.768 556.818 137.051C557.119 139.239 557.4 141.43 557.63 143.626C558.902 143.345 560.173 143.064 561.483 142.774C579.272 138.944 594.665 137.877 611.235 147.036C618.376 151.649 625.463 157.869 628.986 165.759C629.103 168.306 629.103 168.306 627.55 170.721C606.809 191.033 580.856 198.779 552.471 198.651C530.034 198.238 505.066 192.596 486.158 179.996C485.824 176.524 485.687 173.243 485.671 169.767C485.291 157.805 482.889 147.737 475.031 138.35C473.986 137.519 472.94 136.689 471.863 135.833C471.123 135.183 470.382 134.534 469.62 133.864C465.785 131.362 462.291 130.661 457.812 129.744C455.508 129.254 455.508 129.254 453.158 128.755C448.484 128.041 444.095 127.912 439.376 128.039C438.918 128.935 438.461 129.831 437.99 130.754C435.935 134.663 433.775 138.496 431.579 142.328C430.951 143.5 430.322 144.672 429.675 145.879C427.504 149.347 425.826 151.637 422.482 154.018C417.719 154.657 413.488 154.523 408.711 154.048C403.443 154.012 400.857 155.006 396.492 157.915C392.338 162.95 392.098 167.092 392.188 173.502C392.195 175.833 392.195 175.833 392.203 178.21C392.575 182.385 393.405 185.329 395.193 189.089C393.197 189.787 391.191 190.458 389.183 191.119C388.067 191.495 386.951 191.872 385.802 192.26C380.298 193.368 376.218 192.777 371.391 189.88C359.984 180.442 349.237 170.093 339.639 158.808C333.173 151.219 325.897 144.673 317.223 139.73Z" fill="#D24A37"/>
<path d="M71.947 125.188C76.128 120.869 78.3365 119.069 84.4497 118.379C90.0343 118.597 93.3019 120.54 97.6071 124.143C98.4212 125.499 98.4212 125.499 99.2518 126.883C101.392 129.725 101.392 129.725 105.318 129.948C106.82 129.961 108.323 129.975 109.871 129.988C127.917 130.844 140.087 137.192 152.186 150.365C155.172 153.757 156.411 156.136 157.384 160.513C156.692 160.95 156 161.387 155.287 161.836C120.081 184.142 89.99 210.04 65.1196 243.645C61.6326 240.159 61.8753 237.794 61.3023 232.928C60.2552 224.838 58.7426 216.977 56.9114 209.03C51.2675 181.371 53.5101 147.746 71.947 125.188Z" fill="#D34A37"/>
<path d="M193.772 356.651C195.682 350.048 198.563 344.569 202.056 338.709C202.623 337.754 203.19 336.799 203.774 335.814C220.704 307.732 241.926 283.433 265.244 260.53C275.489 263.418 282.748 269.74 288.513 278.644C291.638 284.631 293.973 290.143 295.051 296.819C295.633 300.183 295.939 301.638 298.463 303.983C300.067 305.039 301.689 306.067 303.331 307.063C306.879 309.529 308.088 312.369 309.427 316.384C309.224 324.512 303.549 330.359 298.056 335.787C275.056 355.525 242.835 355.678 214.191 355.305C207.243 355.237 200.646 355.623 193.772 356.651Z" fill="#D24A37"/>
<path d="M177.526 277.498C177.531 276.521 177.536 275.544 177.54 274.538C177.816 265.134 180.423 257.225 184.674 248.84C184.944 248.024 185.213 247.208 185.492 246.368C186.639 243.486 187.538 241.813 189.872 239.748C195.228 238.615 200.503 238.919 205.953 239.098C220.119 239.104 230.256 237.85 241.852 229.356C242.584 228.614 243.316 227.873 244.07 227.108C244.624 226.564 245.179 226.02 245.75 225.459C251.599 225.622 256.773 228.444 261.344 231.954C266.555 237.539 273.23 245.805 272.959 253.843C271.056 258.201 267.539 260.873 264.024 263.94C262.474 265.334 260.926 266.729 259.38 268.126C258.61 268.818 257.841 269.51 257.048 270.222C247.416 278.878 247.416 278.878 239.382 288.942C235.504 294.72 232.653 298.872 225.707 300.614C221.458 300.769 217.351 300.697 213.117 300.307C210.497 300.066 207.887 299.932 205.258 299.815C194.618 299.141 187.551 298.04 179.597 290.725C177.492 286.404 177.487 282.208 177.526 277.498Z" fill="#E6ECF0"/>
<path d="M391.295 164.41C392.898 159.45 395.591 157.174 400.031 154.429C405.034 152.421 407.851 152.831 413.143 153.531C417.937 153.854 417.937 153.854 422.483 152.719C427.714 147.741 430.82 142.178 434.179 135.833C435.285 133.964 436.394 132.097 437.508 130.232C438.125 129.08 438.741 127.928 439.377 126.741C466.98 127.879 466.98 127.879 475.763 137.132C483.085 147.764 486.605 156.558 486.321 169.443C486.309 170.461 486.298 171.479 486.285 172.528C486.255 175.018 486.208 177.507 486.159 179.997C484.547 179.936 484.547 179.936 482.903 179.873C452.793 178.893 424.436 181.551 395.193 189.089C389.707 181.394 390.343 173.52 391.295 164.41Z" fill="#FE6D55"/>
<path d="M166.48 241.046C173.626 220.457 198.609 207.867 217.009 198.684C240.58 187.413 266.434 179.467 292.532 177.399C290.325 182.22 288.229 184.058 283.76 186.978C270.553 196.309 259.61 207.986 249.973 220.913C244.392 228.375 238.716 233.353 230.156 237.15C229.227 237.595 228.297 238.041 227.339 238.5C222.789 240.042 218.521 240.182 213.77 240.24C212.826 240.262 211.883 240.284 210.91 240.306C207.904 240.375 204.898 240.428 201.892 240.478C197.946 240.554 194 240.638 190.054 240.727C189.116 240.746 188.178 240.766 187.211 240.786C182.203 240.91 177.279 241.198 172.308 241.812C170.814 241.988 169.319 242.164 167.78 242.345C167.351 241.917 166.922 241.488 166.48 241.046Z" fill="#D24A37"/>
<path d="M358.807 202.079C361.118 197.458 366.793 196.79 371.477 195.178C372.643 194.776 373.809 194.374 375.011 193.959C387.614 189.723 400.37 186.571 413.386 183.894C414.632 183.637 415.878 183.381 417.162 183.116C432.942 179.946 447.952 177.857 464.066 178.698C465.841 188.455 465.127 196.062 460.655 205.001C455.874 210.535 450.199 214.06 443.274 216.367C428.493 217.377 415.877 215.695 401.69 211.171C398.041 210.016 394.387 208.879 390.726 207.762C389.817 207.484 388.908 207.206 387.972 206.92C378.393 204.117 368.723 202.973 358.807 202.079Z" fill="#D24A37"/>
<path d="M74.2168 231.954C77.9536 226.031 82.0866 220.968 86.887 215.88C87.5795 215.14 88.2721 214.4 88.9856 213.638C90.986 211.51 92.9957 209.39 95.0088 207.274C95.9419 206.286 96.8749 205.298 97.8363 204.28C104.615 197.295 112.087 191.243 119.699 185.192C120.86 184.221 122.021 183.25 123.217 182.249C126.197 179.997 126.197 179.997 128.796 179.997C129.285 189.087 129.719 198.178 130.095 207.274C130.136 208.241 130.177 209.208 130.22 210.204C130.699 222.836 130.005 230.133 121.892 240.072C115.438 246.964 110.481 249.053 101.019 249.489C93.046 249.272 87.8193 247.885 82.0138 242.345C79.1632 239.03 76.6125 235.609 74.2168 231.954Z" fill="#E6EBEF"/>
<path d="M95.0091 267.025C125.812 266.137 153.812 283.721 176.015 303.502C186.313 313.235 195.812 325.47 201.568 338.466C201.414 344.472 198.118 349.042 195.071 354.053C191.04 350.595 188.862 346.231 186.38 341.632C171.126 314.266 146.304 293.833 116.192 284.657C110.741 283.297 105.234 282.182 99.7198 281.11C98.5941 280.749 97.4684 280.387 96.3086 280.014C94.8041 275.503 94.9198 271.752 95.0091 267.025Z" fill="#C9CED1"/>
<path d="M391.295 164.41C392.865 159.551 395.67 157.233 399.742 154.181C408.202 151.462 417.43 151.104 425.651 154.83C433.573 159.513 437.702 166.351 440.676 174.801C440.676 176.516 440.676 178.23 440.676 179.997C438.886 180.341 438.886 180.341 437.061 180.692C432.624 181.545 428.187 182.4 423.75 183.255C421.832 183.625 419.914 183.994 417.995 184.363C415.234 184.893 412.472 185.426 409.711 185.959C408.051 186.278 406.39 186.598 404.68 186.928C401.485 187.57 398.341 188.254 395.193 189.089C389.707 181.394 390.343 173.52 391.295 164.41Z" fill="#E5EBEE"/>
<path d="M31.334 444.978C31.8433 445.514 32.3525 446.05 32.8772 446.602C52.6625 465.696 80.2459 470.081 106.705 470.957C104.081 476.578 101.166 479.933 95.2228 482.297C79.5353 486.64 62.6661 482.748 48.4509 475.604C40.972 471.364 35.4394 467.876 32.7249 459.383C29.7151 448.214 29.7151 448.214 31.334 444.978Z" fill="#D54B38"/>
<path d="M139.191 437.184C142.938 431.231 147.103 426.201 151.943 421.11C157.231 415.5 162.34 409.841 167.131 403.793C169.08 402.113 169.08 402.113 174.278 402.113C177.966 406.063 178.517 409.806 178.745 415.021C178.444 423.481 174.678 427.99 168.674 433.612C160.667 440.059 153.27 440.018 143.425 438.986C140.491 438.483 140.491 438.483 139.191 437.184Z" fill="#D54B38"/>
<path d="M40.4297 283.911C42.1332 278.41 43.7679 273.162 46.9272 268.324C50.5668 266.995 50.5668 266.995 55.1303 266.538C55.9546 266.451 56.7789 266.364 57.6281 266.275C70.0316 265.149 82.5717 265.522 95.0088 265.726C95.0088 270.441 95.0088 275.156 95.0088 280.014C92.7021 280.078 90.3954 280.142 88.0189 280.207C72.0179 280.695 56.2276 281.187 40.4297 283.911Z" fill="#D44B38"/>
<path d="M9.24223 359.249C10.8666 354.54 10.8666 354.54 13.1407 351.455C15.9834 350.319 15.9834 350.319 18.3387 350.156C22.4068 354.568 22.7989 357.794 22.8058 363.714C22.8309 365.159 22.856 366.604 22.8819 368.093C22.1182 373.004 20.4096 375.164 17.0392 378.733C14.6027 378.327 14.6027 378.327 11.8412 377.434C7.96783 371.626 8.61052 366.059 9.24223 359.249Z" fill="#3A3D4C"/>
<path d="M318.13 137.917C315.537 140.96 312.574 143.734 309.427 146.225C293.741 155.955 273.243 161.166 254.99 157.073C243.964 153.117 237.261 145.996 232.274 135.569L232.17 135.273C231.406 133.097 230.846 131.503 230.846 127.773C241.369 124.558 252.305 122.843 263.19 121.135C264.604 120.913 266.017 120.692 267.428 120.467C268.099 120.36 269.334 120.206 270.579 120.051C271.842 119.894 273.116 119.735 273.818 119.623C290.018 118.148 299.362 117.449 313.569 117.567L317.694 117.585C321.003 117.6 324.311 117.621 327.62 117.648C344.476 117.273 360.965 118.436 377.732 120.084C380.263 120.325 382.794 120.564 385.325 120.803C389.07 121.156 392.816 121.51 396.561 121.868C406.387 122.806 416.218 123.666 426.057 124.468L429.893 124.782C432.621 125.004 435.349 125.223 438.078 125.442C437.408 131.504 435.84 135.395 432.473 140.461L430.133 144.038L427.682 147.524L425.341 151.202C423.948 152.575 423.234 153.278 422.381 153.697C421.483 154.136 420.43 154.261 418.271 154.515L413.549 154.181C406.609 153.716 402.376 154.012 396.494 157.915C392.339 162.95 392.099 167.092 392.189 173.502L392.204 178.211C392.576 182.386 393.406 185.329 395.194 189.089C393.198 189.787 391.193 190.458 389.184 191.119L385.803 192.261C380.299 193.369 376.22 192.778 371.392 189.881C359.985 180.443 349.238 170.093 339.64 158.808C333.174 151.219 325.898 144.674 317.224 139.73C317.526 139.126 317.828 138.521 318.13 137.917Z" fill="#E6ECF0"/>
<defs>
<filter id="filter0_f_528_761" x="50.5313" y="108.1" width="688.543" height="455.576" filterUnits="userSpaceOnUse" color-interpolation-filters="sRGB">
<feFlood flood-opacity="0" result="BackgroundImageFix"/>
<feBlend mode="normal" in="SourceGraphic" in2="BackgroundImageFix" result="shape"/>
<feGaussianBlur stdDeviation="15" result="effect1_foregroundBlur_528_761"/>
</filter>
</defs>
</svg>
