<svg width="523" height="736" viewBox="0 0 523 736" fill="none" xmlns="http://www.w3.org/2000/svg">
<g opacity="0.3" filter="url(#filter0_f_528_782)">
<path d="M122.673 81.2598C133.979 85.4223 141.598 99.7678 146.449 110.013C159.268 143.275 155.254 177.746 141.443 210.025C140.559 211.68 139.666 213.33 138.765 214.977C136.085 220.197 135.618 224.85 135.499 230.652C135.462 231.561 135.425 232.47 135.387 233.407C135.3 235.613 135.24 237.821 135.186 240.028C136.606 239.771 138.025 239.513 139.488 239.247C147.191 238.307 153.629 239.865 160.527 243.31C165.857 247.909 169.254 253.369 171.476 260.031C172.381 273.25 171.293 284.849 167.253 297.564C166.1 301.209 165.022 304.875 163.942 308.542C163.401 310.373 162.853 312.201 162.295 314.026C160.815 318.929 159.679 323.719 158.963 328.789C158.684 330.319 158.684 330.319 158.4 331.88C155.718 361.01 187.413 397.773 205.185 419.268C205.762 419.976 206.339 420.684 206.933 421.413C208.377 423.118 209.941 424.72 211.521 426.3C212.759 426.3 213.998 426.3 215.275 426.3C217.084 424.341 217.084 424.341 218.716 421.768C227.023 410.292 237.662 404.399 251.565 401.375C256.55 399.611 257.549 396.929 260.324 392.546C264.083 390.069 266.438 388.761 270.961 388.874C282.416 393.165 290.139 402.582 295.24 413.407C304.857 435.183 305.635 456.98 305.329 480.415C305.263 487.099 305.636 493.446 306.625 500.059C307.664 500.185 308.703 500.31 309.773 500.44C314.767 501.435 319.201 503.168 323.832 505.216C324.709 505.599 325.586 505.981 326.49 506.376C332.975 509.303 338.653 512.81 344.269 517.204C346.708 519.159 346.708 519.159 350.424 518.811C351.275 518.192 352.127 517.573 353.005 516.936C358.391 514.188 363.26 514.221 369.194 515.061C376.865 518.745 382.534 525.098 386.01 532.797C386.705 537.503 386.252 540.44 385.462 545.064C384.901 548.937 384.901 548.937 385.462 552.565C388.166 555.524 390.95 557.183 394.418 559.182C401.637 563.511 408.07 569.835 411.976 577.334C414.622 581.983 417.267 583.518 421.752 586.319C427.04 591.455 428.589 596.659 429.261 603.821C429.436 620.121 425.581 635.74 415.495 648.826C410.741 653.402 406.635 654.813 400.244 656.249C394.495 657.622 389.264 659.177 384.055 662.031C374.654 667.06 364.774 668.861 354.17 669.017C346.734 668.894 346.734 668.894 340.471 672.242C338.803 674.851 338.803 674.851 337.734 677.57C336.522 680.4 335.27 681.877 332.904 683.83C322.275 687.37 305.86 686.313 295.363 682.58C289.875 678.012 287.847 675.001 287.151 668.047C287.046 667.026 286.941 666.004 286.833 664.951C286.757 664.168 286.681 663.385 286.603 662.578C285.812 662.39 285.02 662.202 284.204 662.008C254.568 654.924 228.432 647.227 203.372 629.532C192.283 622.558 175.975 629.143 164.085 631.744C140.318 636.841 110.179 635.124 89.2666 621.65C84.7061 618.23 80.7012 614.923 77.6229 610.072C76.9393 604.023 76.9563 601.331 79.8128 595.93C82.6284 592.57 82.6284 592.57 85.268 590.988C88.0061 588.929 88.0061 588.929 88.2205 585.152C88.2334 583.706 88.2463 582.261 88.2596 580.771C88.9595 565.715 93.3088 553.974 104.298 543.57C107.051 541.107 109.849 538.707 112.662 536.313C113.487 535.488 114.313 534.663 115.164 533.813C114.558 532.644 113.951 531.476 113.326 530.272C97.4689 499.395 85.462 466.963 80.1257 432.551C79.947 431.434 79.7684 430.317 79.5843 429.166C77.4369 415.19 76.2751 401.39 76.2151 387.262C76.0702 352.622 76.0702 352.622 65.1091 320.038C63.0565 315.499 61.0685 310.934 59.0868 306.364C58.6079 305.275 58.129 304.185 57.6356 303.063C51.8954 289.731 46.9716 274.336 52.2482 260.089C55.7811 253.061 61.5753 248.044 68.5504 244.56C72.441 243.813 75.8051 243.701 79.7542 243.73C80.995 243.737 82.2359 243.744 83.5144 243.751C84.4609 243.76 85.4074 243.769 86.3826 243.779C87.1176 223.538 86.2948 205.699 77.9357 186.975C74.3008 178.805 73.6591 171.985 76.4497 163.457C81.697 156.016 87.2879 151.734 96.3936 150.018C98.0454 150.018 99.6972 150.018 101.399 150.018C101.128 148.795 100.857 147.572 100.578 146.311C96.611 127.914 95.9879 111.961 106.629 95.4265C110.947 89.9005 116.339 84.4235 122.673 81.2598Z" fill="black"/>
</g>
<path d="M191.407 0C202.713 4.16258 210.333 18.5081 215.183 28.7534C228.002 62.0148 223.988 96.4858 210.178 128.765C209.293 130.42 208.4 132.071 207.499 133.717C204.819 138.938 204.352 143.591 204.234 149.393C204.196 150.301 204.159 151.21 204.121 152.147C204.034 154.353 203.974 156.561 203.921 158.769C205.34 158.511 206.76 158.253 208.222 157.987C215.925 157.047 222.364 158.605 229.261 162.05C234.592 166.649 237.988 172.109 240.211 178.771C241.116 191.99 240.027 203.589 235.987 216.304C234.834 219.949 233.757 223.615 232.677 227.283C232.135 229.113 231.587 230.941 231.03 232.767C229.55 237.669 228.414 242.46 227.697 247.529C227.419 249.059 227.419 249.059 227.135 250.62C224.452 279.75 256.148 316.514 273.92 338.008C274.497 338.716 275.073 339.424 275.667 340.154C277.112 341.858 278.676 343.46 280.255 345.04C281.494 345.04 282.733 345.04 284.009 345.04C285.819 343.081 285.819 343.081 287.45 340.509C295.757 329.032 306.397 323.139 320.299 320.116C325.285 318.352 326.283 315.67 329.059 311.287C332.818 308.81 335.173 307.501 339.695 307.614C351.151 311.906 358.873 321.322 363.975 332.147C373.592 353.923 374.369 375.72 374.063 399.155C373.998 405.839 374.37 412.186 375.36 418.799C376.399 418.925 377.437 419.051 378.508 419.18C383.501 420.176 387.935 421.909 392.566 423.956C393.443 424.339 394.32 424.722 395.224 425.116C401.71 428.043 407.387 431.55 413.004 435.945C415.442 437.899 415.442 437.899 419.158 437.551C420.01 436.932 420.862 436.314 421.739 435.676C427.125 432.929 431.994 432.961 437.929 433.801C445.599 437.485 451.268 443.838 454.744 451.537C455.439 456.243 454.987 459.18 454.197 463.804C453.636 467.677 453.636 467.677 454.197 471.305C456.9 474.264 459.685 475.923 463.152 477.922C470.371 482.251 476.805 488.576 480.71 496.074C483.357 500.723 486.001 502.259 490.487 505.059C495.774 510.195 497.324 515.399 497.995 522.561C498.17 538.861 494.315 554.48 484.23 567.567C479.475 572.143 475.37 573.554 468.979 574.989C463.23 576.362 457.999 577.917 452.789 580.771C443.388 585.8 433.508 587.601 422.905 587.758C415.468 587.634 415.468 587.634 409.206 590.982C407.538 593.592 407.538 593.592 406.468 596.31C405.256 599.14 404.004 600.617 401.639 602.571C391.009 606.11 374.595 605.053 364.097 601.321C358.61 596.752 356.581 593.741 355.885 586.788C355.78 585.766 355.675 584.744 355.567 583.692C355.492 582.908 355.416 582.125 355.338 581.318C354.546 581.13 353.754 580.942 352.938 580.749C323.302 573.664 297.167 565.967 272.106 548.272C261.017 541.299 244.709 547.883 232.82 550.484C209.052 555.581 178.914 553.864 158.001 540.391C153.44 536.97 149.436 533.663 146.357 528.812C145.674 522.763 145.691 520.071 148.547 514.67C151.363 511.31 151.363 511.31 154.002 509.728C156.74 507.669 156.74 507.669 156.955 503.892C156.968 502.447 156.981 501.001 156.994 499.512C157.694 484.455 162.043 472.714 173.032 462.31C175.785 459.847 178.583 457.448 181.396 455.053C182.222 454.228 183.048 453.403 183.899 452.553C183.292 451.385 182.686 450.216 182.061 449.013C166.203 418.135 154.196 385.703 148.86 351.291C148.681 350.174 148.503 349.057 148.319 347.906C146.171 333.93 145.009 320.13 144.949 306.003C144.805 271.362 144.805 271.362 133.843 238.778C131.791 234.24 129.803 229.674 127.821 225.105C127.342 224.015 126.863 222.925 126.37 221.803C120.63 208.471 115.706 193.077 120.983 178.83C124.515 171.801 130.31 166.785 137.285 163.3C141.175 162.553 144.539 162.441 148.489 162.47C149.729 162.477 150.97 162.484 152.249 162.492C153.195 162.501 154.142 162.51 155.117 162.519C155.852 142.278 155.029 124.44 146.67 105.716C143.035 97.5449 142.393 90.7248 145.184 82.1971C150.431 74.7567 156.022 70.4744 165.128 68.7581C166.78 68.7581 168.432 68.7581 170.133 68.7581C169.862 67.5349 169.591 66.3118 169.312 65.0516C165.345 46.6542 164.722 30.7009 175.364 14.1667C179.682 8.6407 185.073 3.16376 191.407 0Z" fill="#E6EDF1"/>
<path d="M191.407 0C202.713 4.16258 210.333 18.5081 215.183 28.7534C228.002 62.0148 223.988 96.4858 210.178 128.765C209.293 130.42 208.4 132.071 207.499 133.717C204.819 138.938 204.352 143.591 204.234 149.393C204.196 150.301 204.159 151.21 204.121 152.147C204.034 154.353 203.974 156.561 203.921 158.769C205.34 158.511 206.76 158.253 208.222 157.987C215.925 157.047 222.364 158.605 229.261 162.05C234.592 166.649 237.988 172.109 240.211 178.771C241.184 192.991 239.563 205.128 235.205 218.776C234.093 222.286 232.997 225.802 231.92 229.324C231.653 230.198 231.385 231.072 231.11 231.973C228.409 241.188 227.307 250.491 226.446 260.03C223.445 256.45 222.082 253.67 221.205 249.092C221.007 248.093 220.809 247.093 220.604 246.064C220.467 245.31 220.33 244.556 220.189 243.779C216.049 245.518 214.133 247.308 211.585 250.967C203.605 261.609 193.651 271.134 183.508 279.72C173.535 288.173 173.535 288.173 166.482 298.917C166.144 301.348 166.144 301.348 167.68 303.248C168.335 303.89 168.989 304.531 169.664 305.192C181.384 317.987 184.769 334.944 184.319 351.853C183.403 361.522 180.548 367.711 173.418 374.341C169.237 377.729 165.252 380.757 160.122 382.545C157.409 381.993 157.41 381.993 155.117 381.295C149.383 356.362 145.069 331.652 144.954 306.022C144.805 271.371 144.805 271.371 133.843 238.778C131.791 234.24 129.803 229.674 127.821 225.105C127.342 224.015 126.863 222.925 126.37 221.803C120.63 208.471 115.706 193.077 120.983 178.83C124.515 171.801 130.31 166.785 137.285 163.3C141.175 162.553 144.539 162.441 148.489 162.47C149.729 162.477 150.97 162.484 152.249 162.492C153.195 162.501 154.142 162.51 155.117 162.519C155.852 142.278 155.029 124.44 146.67 105.716C143.035 97.5449 142.393 90.7248 145.184 82.1971C150.431 74.7567 156.022 70.4744 165.128 68.7581C166.78 68.7581 168.432 68.7581 170.133 68.7581C169.862 67.5349 169.591 66.3118 169.312 65.0516C165.345 46.6542 164.722 30.7009 175.364 14.1667C179.682 8.6407 185.073 3.16376 191.407 0Z" fill="#BDD1D6"/>
<path d="M279.003 343.79C281.339 346.349 281.339 346.349 283.852 349.729C295.53 364.469 310.256 376.379 325.304 387.545C326.55 388.472 326.55 388.472 327.822 389.416C338.174 397.046 348.652 404.069 360.012 410.122C364.701 412.631 368.811 415.344 372.856 418.799C370.409 420.264 367.958 421.721 365.504 423.175C363.457 424.393 363.457 424.393 361.369 425.636C357.84 427.55 357.84 427.55 355.337 427.55C355.337 428.375 355.337 429.2 355.337 430.05C356.697 430.222 356.697 430.222 358.084 430.397C372.417 434.087 382.858 450.628 389.936 462.555C399.235 478.681 407.364 494.698 405.392 513.81C402.554 520.026 398.755 522.939 392.878 526.312C385.615 528.73 377.214 528.909 370.197 525.609C366.356 523.452 363.263 520.76 359.951 517.873C354.511 513.484 350.426 512.915 343.546 513.136C340.196 513.646 340.196 513.646 337.231 515.71C333.463 517.911 331.2 518.026 326.868 517.951C325.661 517.947 324.455 517.942 323.212 517.937C319.877 517.636 317.062 517.125 313.841 516.33C306.976 514.72 300.185 514.544 293.159 514.357C278.008 513.901 278.008 513.901 271.494 512.56C271.391 513.437 271.288 514.313 271.181 515.217C268.814 524.281 262.54 528.728 255.226 533.813C248.391 528.88 242.04 523.654 235.908 517.873C235.094 517.108 234.279 516.343 233.439 515.555C223.194 505.843 213.331 495.357 205.171 483.807C205.171 482.982 205.171 482.157 205.171 481.306C218.179 480.688 218.179 480.688 231.45 480.056C226.592 468.27 222.373 458.427 213.931 448.803C212.326 446.835 210.736 444.856 209.16 442.864C208.103 441.559 208.103 441.559 207.024 440.227C201.599 432.391 201.806 424.274 202.668 415.049C204.795 406.495 211.561 399.6 218.936 395.046C221.458 395.322 221.458 395.322 223.942 396.296C225.835 399.274 227.442 402.147 229.026 405.282C237.034 420.231 246.86 434.596 261.483 443.802C262.309 443.802 263.135 443.802 263.986 443.802C263.688 441.675 263.688 441.675 263.385 439.505C262.753 433.855 262.593 428.229 262.515 422.55C262.5 421.643 262.485 420.737 262.47 419.803C262.408 416.014 262.349 412.226 262.327 408.437C262.234 395.088 261.614 383.982 252.333 373.559C249.805 370.302 249.008 369.252 248.657 365.043C253.075 354.449 260.084 348.838 270.243 343.79C274.235 342.461 275.236 342.217 279.003 343.79Z" fill="#FE6D55"/>
<path d="M220.188 243.779C220.626 245.038 220.626 245.038 221.072 246.323C233.828 281.22 252.897 312.706 276.5 341.29C273.503 344.284 270.671 345.351 266.801 347.072C258.007 351.396 253.775 356.143 249.83 364.965C250.376 370.312 253.104 372.958 256.654 376.871C264.255 387.241 263.376 398.947 263.517 411.22C263.577 414.982 263.648 418.744 263.722 422.506C263.746 423.841 263.746 423.841 263.771 425.203C263.904 431.478 264.374 437.589 265.237 443.802C263.998 444.215 262.76 444.627 261.483 445.052C245.095 435.59 235.16 418.654 226.444 402.547C225.206 400.456 223.959 398.37 222.69 396.297C216.153 397.436 212.122 401.618 207.674 406.298C202.738 414.003 202.971 422.359 203.92 431.301C205.872 439.076 211.672 444.67 216.783 450.592C224.244 459.376 228.196 469.115 231.45 480.057C226.66 481.652 222.128 481.537 217.137 481.541C216.182 481.556 215.226 481.572 214.241 481.587C213.314 481.59 212.388 481.592 211.433 481.595C210.171 481.603 210.171 481.603 208.884 481.61C204.895 481.118 202.299 479.855 199.704 476.77C199.201 475.972 198.699 475.175 198.181 474.353C197.614 473.466 197.048 472.58 196.464 471.667C195.879 470.722 195.294 469.778 194.691 468.805C194.079 467.836 193.467 466.867 192.837 465.868C191.097 463.104 189.374 460.329 187.652 457.554C186.556 455.83 186.556 455.83 185.437 454.072C176.494 439.722 169.774 424.748 164.032 408.876C163.555 407.559 163.078 406.241 162.586 404.884C159.979 397.493 157.892 390.233 156.367 382.545C157.364 382.105 158.361 381.665 159.388 381.212C169.915 376.312 175.777 372.102 181.238 361.918C186.057 346.956 182.488 328.81 175.812 315.008C172.759 309.728 169.55 305.504 165.127 301.286C169.964 287.42 184.559 277.046 195.052 267.322C204.417 258.728 204.417 258.728 212.445 248.936C216.058 243.779 216.058 243.779 220.188 243.779Z" fill="#E6EDF1"/>
<path d="M205.171 181.271C205.399 182.527 205.626 183.782 205.861 185.075C208.157 197.615 210.523 210.136 214.073 222.394C214.308 223.222 214.544 224.051 214.787 224.904C215.457 227.238 216.15 229.565 216.844 231.892C217.995 237.895 217.803 242.628 214.738 248.003C205.223 259.332 194.809 270.148 183.507 279.72C173.534 288.173 173.534 288.173 166.481 298.917C166.143 301.348 166.143 301.348 167.679 303.248C168.334 303.89 168.989 304.531 169.663 305.192C181.383 317.987 184.768 334.944 184.318 351.853C183.403 361.522 180.547 367.711 173.418 374.341C169.237 377.729 165.251 380.757 160.122 382.545C157.409 381.993 157.409 381.993 155.116 381.295C148.301 351.662 144.776 322.979 144.714 292.612C144.709 291.543 144.705 290.473 144.7 289.371C144.67 275.918 145.435 262.768 146.986 249.408C147.947 241.042 148.383 232.651 148.859 224.245C149.665 210.681 150.732 197.231 152.613 183.771C158.492 184.412 162.196 185.949 167.082 189.241C168.22 189.998 169.357 190.756 170.529 191.536C171.637 192.274 172.745 193.012 173.887 193.773C175.965 195.035 178.048 196.289 180.144 197.523C180.599 196.859 181.054 196.195 181.522 195.511C187.805 186.692 193.72 180.962 205.171 181.271Z" fill="#FD6D56"/>
<path d="M195.551 137.438C198.725 137.464 201.9 137.489 205.171 137.516C204.758 144.529 204.345 151.543 203.919 158.769C208.875 158.15 208.875 158.15 213.93 157.518C221.144 158.084 227.185 160.26 232.701 165.019C240.879 175.979 241.289 186.769 240.209 200.023C239.013 206.44 237.188 212.561 235.204 218.776C234.091 222.286 232.995 225.802 231.919 229.324C231.517 230.635 231.517 230.635 231.108 231.973C228.408 241.188 227.305 250.491 226.444 260.03C223.443 256.449 222.08 253.67 221.204 249.092C221.005 248.092 220.807 247.093 220.603 246.064C220.397 244.933 220.397 244.933 220.187 243.778C218.329 244.397 218.329 244.397 216.433 245.029C216.506 243.849 216.578 242.669 216.653 241.454C216.648 235.149 214.709 229.457 212.914 223.464C209.018 209.905 205.171 195.478 205.171 181.271C194.964 183.75 188.241 186.494 182.176 195.413C181.505 196.522 180.834 197.631 180.143 198.773C175.14 196.009 170.377 193.115 165.674 189.866C161.452 187.006 157.602 185.05 152.613 183.771C152.642 184.46 152.671 185.148 152.701 185.857C152.904 195.234 152.033 204.41 151.088 213.724C150.41 220.461 149.859 227.173 149.484 233.934C148.846 245.176 147.61 256.343 146.356 267.531C143.027 265.868 143.003 264.541 141.815 261.066C141.429 259.964 141.043 258.861 140.645 257.726C140.232 256.527 139.82 255.328 139.395 254.092C135.929 244.222 132.106 234.645 127.82 225.104C121.506 210.797 115.237 194.338 120.981 178.829C124.514 171.801 130.308 166.784 137.283 163.3C143.23 162.158 149.08 162.326 155.115 162.519C155.115 161.281 155.115 160.044 155.115 158.769C155.941 158.769 156.767 158.769 157.618 158.769C157.902 157.866 158.186 156.964 158.478 156.034C162.442 147.55 170.732 142.791 178.892 138.766C184.367 137.173 189.896 137.373 195.551 137.438Z" fill="#E6EDF1"/>
<path d="M356.745 429.191C377.006 436.271 389.181 459.533 397.913 477.631C403.647 489.787 406.787 500.291 405.392 513.81C402.554 520.026 398.755 522.939 392.878 526.312C385.615 528.73 377.214 528.909 370.197 525.608C366.356 523.452 363.263 520.76 359.951 517.873C354.511 513.484 350.427 512.915 343.547 513.136C340.193 513.65 340.193 513.65 337.192 515.705C326.61 521.982 309.219 516.086 297.773 513.81C299.632 512.573 299.632 512.573 301.528 511.31C302.202 508.307 302.686 505.442 303.092 502.403C307.723 473.722 325.811 450.627 347.829 432.551C348.679 431.835 349.529 431.12 350.405 430.382C352.834 428.8 352.834 428.8 356.745 429.191Z" fill="#FE6D55"/>
<path d="M183.899 453.803C188.131 455.213 188.469 455.783 190.669 459.419C191.21 460.301 191.751 461.182 192.309 462.09C193.14 463.48 193.14 463.48 193.988 464.898C195.097 466.718 196.207 468.538 197.317 470.358C197.804 471.168 198.291 471.979 198.793 472.814C201.117 476.608 202.654 478.796 206.424 481.306C207.288 482.958 208.118 484.628 208.926 486.307C220.621 502.167 235.291 519.718 252.021 530.375C255.227 532.562 255.227 532.562 256.479 536.313C258.136 537.169 259.806 537.999 261.484 538.813C263.2 540.432 264.88 542.09 266.49 543.814C263.1 545.507 259.929 545.677 256.166 546.158C249.782 547.029 243.53 548.126 237.239 549.518C212.17 555.003 184.703 554.343 161.374 542.564C155.498 538.778 150.14 534.773 146.357 528.812C145.674 522.763 145.691 520.071 148.547 514.67C151.363 511.31 151.363 511.31 154.003 509.728C156.741 507.669 156.741 507.669 156.955 503.892C156.968 502.447 156.981 501.001 156.994 499.512C157.697 484.386 162.102 472.78 173.032 462.266C180.499 455.502 180.499 455.502 183.899 453.803Z" fill="#BCD0D5"/>
<path d="M342.822 308.786C358.546 317.164 365.301 333.081 370.436 349.24C374.633 365.528 374.279 382.458 374.061 399.155C373.996 405.839 374.368 412.186 375.358 418.799C354.13 410.72 335.431 396.563 317.795 382.545C316.669 381.663 315.543 380.782 314.383 379.873C307.298 374.226 300.58 368.231 293.94 362.074C293.119 361.314 292.298 360.555 291.453 359.772C290.301 358.692 290.301 358.692 289.125 357.591C288.44 356.949 287.754 356.307 287.047 355.645C285.259 353.791 285.259 353.791 282.756 350.041C283.652 341.788 291.458 334.287 297.626 329.262C304.446 324.824 312.361 321.841 320.297 320.115C325.283 318.352 326.281 315.669 329.057 311.286C334.039 308.003 337.141 306.658 342.822 308.786Z" fill="#BCD0D5"/>
<path d="M202.669 323.788C207.378 325.637 209.161 328.046 211.898 332.227C220.49 344.384 231.176 354.879 243.26 363.558C252.692 370.342 260.116 378.435 262.735 390.046C263.336 397.101 263.436 404.143 263.517 411.22C263.578 414.982 263.648 418.744 263.722 422.506C263.738 423.396 263.754 424.286 263.771 425.203C263.904 431.478 264.375 437.589 265.238 443.802C263.999 444.215 262.76 444.627 261.484 445.052C245.115 435.601 235.124 418.659 226.445 402.547C225.648 401.225 224.851 399.902 224.03 398.54C221.312 393.791 219.51 388.938 217.798 383.756C217.48 382.814 217.163 381.872 216.836 380.901C216.17 378.915 215.509 376.927 214.852 374.938C213.865 371.957 212.857 368.983 211.846 366.01C202.211 337.294 202.211 337.294 202.669 323.788Z" fill="#BDD0D5"/>
<path d="M229.344 162.319C235.138 166.308 238.074 172.227 240.21 178.771C240.598 182.237 240.808 185.321 240.758 188.772C240.745 190.161 240.745 190.161 240.732 191.578C240.46 201.096 238.093 209.729 235.205 218.776C234.092 222.286 232.996 225.802 231.92 229.324C231.652 230.198 231.385 231.072 231.109 231.973C228.408 241.188 227.306 250.491 226.445 260.031C223.444 256.45 222.081 253.67 221.205 249.092C221.006 248.093 220.808 247.093 220.604 246.064C220.466 245.31 220.329 244.556 220.188 243.779C218.33 244.397 218.33 244.397 216.434 245.029C216.505 243.839 216.576 242.65 216.649 241.425C216.643 235.27 214.762 229.778 212.993 223.933C206.929 202.777 202.626 180.853 203.92 158.769C212.591 156.166 221.558 157.952 229.344 162.319Z" fill="#BCD0D5"/>
<path d="M155.115 158.769C155.528 158.769 155.941 158.769 156.367 158.769C156.276 159.526 156.186 160.283 156.093 161.064C155.25 168.668 154.969 176.124 155.115 183.771C154.289 183.771 153.464 183.771 152.613 183.771C152.642 184.46 152.671 185.148 152.701 185.857C152.904 195.234 152.033 204.41 151.088 213.724C150.41 220.461 149.859 227.173 149.484 233.934C148.846 245.176 147.61 256.343 146.356 267.531C143.027 265.868 143.003 264.541 141.815 261.066C141.429 259.964 141.043 258.861 140.645 257.726C140.232 256.527 139.82 255.328 139.395 254.092C135.929 244.222 132.106 234.645 127.82 225.104C121.506 210.797 115.237 194.338 120.981 178.83C124.514 171.801 130.308 166.784 137.283 163.3C143.23 162.158 149.08 162.326 155.115 162.519C155.115 161.281 155.115 160.044 155.115 158.769Z" fill="#BDD0D5"/>
<path d="M366.6 413.798C368.713 415.431 370.802 417.094 372.857 418.799C371.481 419.571 370.105 420.343 368.687 421.138C357.548 427.476 347.331 433.899 337.818 442.552C336.91 443.372 336.002 444.192 335.066 445.037C317.867 461.368 306.294 484.711 303.684 508.179C302.779 511.31 302.779 511.31 300.448 512.985C296.981 514.055 293.87 513.974 290.266 513.81C291.696 483.44 306.779 454.322 328.824 433.63C356.645 409.956 356.645 409.956 366.6 413.798Z" fill="#D44B38"/>
<path d="M479.223 496.308C481.321 497.959 483.403 499.631 485.48 501.309C486.232 501.911 486.984 502.514 487.758 503.135C488.915 504.087 488.915 504.087 490.095 505.059C491.186 505.949 491.186 505.949 492.299 506.856C498.473 513.07 497.902 521.809 497.994 530.062C496.999 544.665 491.891 559.291 481.726 570.067C477.078 573.781 473.854 574.228 467.961 573.817C469.97 567.658 472.068 561.54 474.296 555.456C474.719 554.295 475.141 553.135 475.577 551.94C476.445 549.567 477.324 547.197 478.207 544.829C480.801 535.856 480.669 526.666 480.631 517.404C480.636 516.201 480.641 514.997 480.646 513.756C480.638 507.8 480.467 502.164 479.223 496.308Z" fill="#BFD2D7"/>
<path d="M437.927 433.801C445.622 437.497 451.311 443.865 454.742 451.616C455.689 457.92 455.037 463.765 454.195 470.055C452.956 470.055 451.717 470.055 450.441 470.055C448.632 468.165 448.632 468.165 446.53 465.445C440.664 458.479 433.611 453.426 426.214 448.201C425.305 447.541 424.395 446.88 423.458 446.2C422.63 445.617 421.803 445.034 420.95 444.433C419.156 442.552 419.156 442.552 419.156 437.551C424.443 432.622 431.123 432.838 437.927 433.801Z" fill="#BED2D7"/>
<path d="M290.265 513.81C293.982 513.81 297.698 513.81 301.528 513.81C301.553 514.779 301.577 515.748 301.603 516.746C302.08 541.654 302.08 541.654 305.282 566.316C295.666 563.26 295.666 563.26 292.768 561.316C289.222 551.264 289.954 539.635 290.109 529.124C290.12 527.642 290.131 526.159 290.143 524.632C290.172 521.024 290.213 517.417 290.265 513.81Z" fill="#BED2D7"/>
<path d="M389.251 583.198C391.626 584.053 391.626 584.053 395.381 586.319C396.554 589.678 396.554 589.678 396.632 592.569C390.983 596.939 385.968 597.173 379.113 596.32C375.585 595.475 373.541 594.494 370.353 592.569C369.18 589.21 369.18 589.21 369.102 586.319C375.359 581.479 381.776 581.408 389.251 583.198Z" fill="#3E4453"/>
<defs>
<filter id="filter0_f_528_782" x="0" y="31.2598" width="479.266" height="704.74" filterUnits="userSpaceOnUse" color-interpolation-filters="sRGB">
<feFlood flood-opacity="0" result="BackgroundImageFix"/>
<feBlend mode="normal" in="SourceGraphic" in2="BackgroundImageFix" result="shape"/>
<feGaussianBlur stdDeviation="25" result="effect1_foregroundBlur_528_782"/>
</filter>
</defs>
</svg>
