<svg width="67" height="64" viewBox="0 0 67 64" fill="none" xmlns="http://www.w3.org/2000/svg">
<path d="M32.7101 0C33.1438 0.993694 33.7013 2.42213 34.3828 4.2853C35.1262 6.08636 35.9006 8.0427 36.706 10.1543C37.5113 12.2038 38.2238 14.1601 38.8433 16.0233C39.4628 17.8865 39.9584 19.3459 40.3301 20.4017L29.1789 24.3144C28.9311 23.1344 28.4975 21.6439 27.878 19.8428C27.2584 18.0417 26.577 16.1475 25.8336 14.1601C25.0902 12.1106 24.3468 10.1543 23.6033 8.29112C22.8599 6.42795 22.2095 4.8753 21.6519 3.63319L32.7101 0ZM67 6.80058C66.5044 8.29112 66.0707 9.56429 65.699 10.6201C65.3893 11.6759 65.0795 12.6696 64.7698 13.6012C63.5927 18.3212 61.982 23.0412 59.9376 27.7613C57.8932 32.4192 55.2913 36.7977 52.1318 40.8967C47.7952 46.4862 42.8701 51.2373 37.3564 55.1499C31.9047 59.0005 26.4531 61.9505 21.0014 64L11.2441 54.032C14.6514 53.1004 18.2446 51.7341 22.0236 49.933C25.8026 48.0699 29.4577 45.8341 32.9889 43.2256C36.5201 40.6172 39.5557 37.7293 42.0957 34.5619C44.202 31.8913 46.0606 28.8481 47.6713 25.4323C49.344 21.9544 50.7069 18.2591 51.7601 14.3464C52.8752 10.3717 53.6186 6.459 53.9903 2.60844L67 6.80058ZM11.1512 4.93741C11.7707 6.11742 12.4522 7.63901 13.1956 9.50219C14.0009 11.3654 14.8063 13.3217 15.6117 15.3712C16.417 17.4207 17.1914 19.4081 17.9348 21.3333C18.7402 23.2586 19.3597 24.8734 19.7934 26.1776L8.45632 30.4629C8.08461 29.2208 7.52704 27.606 6.78363 25.6186C6.10217 23.6312 5.32782 21.5507 4.4605 19.377C3.59319 17.1412 2.75681 15.0917 1.95145 13.2285C1.20804 11.3654 0.557558 9.93692 0 8.94323L11.1512 4.93741Z" fill="#0D0D0D"/>
</svg>
