<svg width="1920" height="1080" viewBox="0 0 1920 1080" fill="none" xmlns="http://www.w3.org/2000/svg">
<path d="M899.848 878.201V860.372H909.539C912.828 860.372 915.529 860.738 917.644 861.469C919.758 862.109 921.344 863.115 922.401 864.487C923.575 865.767 924.163 867.367 924.163 869.287C924.163 871.115 923.575 872.715 922.401 874.087C921.344 875.458 919.758 876.509 917.644 877.241C915.529 877.881 912.828 878.201 909.539 878.201H899.848ZM899.848 931.001V900.829H905.193L927.158 931.001H972.086L942.575 896.545C950.165 893.713 955.714 889.839 959.225 884.921C962.866 879.892 964.686 874.224 964.686 867.915C964.686 861.515 962.866 855.847 959.225 850.909C955.701 845.972 950.121 842.087 942.486 839.252C934.969 836.418 925.161 835.001 913.063 835.001H899.848H886.105H861.086V931.001H899.848Z" fill="#3247E6"/>
<path d="M685.899 907.001V893.287H854.485V869.972H685.899V859.001H858.086V835.001H685.899H675.456H648.086V931.001H675.456H685.899H858.086V907.001H685.899Z" fill="#3247E6"/>
<path d="M932.034 733.001H972.086V835.001L884.139 786.544V829.001H844.086V729.001L932.034 777.458V733.001Z" fill="#3247E6"/>
<path d="M767.559 794.441V773.961H838.679C839.698 781.641 838.806 788.809 836.002 795.465C833.325 802.121 828.928 807.966 822.811 813.001C816.693 818.036 808.982 821.961 799.678 824.777C790.373 827.593 779.667 829.001 767.559 829.001C756.343 829.001 746.083 827.849 736.779 825.545C727.475 823.241 719.381 819.956 712.499 815.689C705.744 811.422 700.454 806.302 696.631 800.329C692.934 794.356 691.086 787.7 691.086 780.361C691.086 773.022 693.062 766.452 697.013 760.649C700.964 754.761 706.445 749.769 713.455 745.673C720.592 741.577 728.877 738.462 738.308 736.329C747.867 734.11 758.255 733.001 769.471 733.001C779.667 733.001 788.653 734.025 796.427 736.073C804.33 738.121 811.212 740.852 817.075 744.265C823.065 747.593 828.291 751.348 832.752 755.529L793.56 767.305C791.266 764.489 788.27 762.014 784.574 759.881C780.878 757.748 775.844 756.681 769.471 756.681C763.226 756.681 757.49 757.577 752.265 759.369C747.039 761.076 742.833 763.678 739.647 767.177C736.588 770.676 735.058 775.07 735.058 780.361C735.058 785.566 736.46 790.046 739.264 793.801C742.196 797.556 746.21 800.414 751.309 802.377C756.534 804.34 762.588 805.321 769.471 805.321C773.295 805.321 776.736 805.065 779.795 804.553C782.854 804.041 785.466 803.316 787.633 802.377C789.927 801.438 791.903 800.286 793.56 798.921C795.217 797.556 796.619 796.062 797.766 794.441H767.559Z" fill="#3247E6"/>
<path d="M648.086 733.001H688.086V829.001H648.086V733.001Z" fill="#3247E6"/>
<path d="M891.175 689.113C893.526 692.1 896.229 694.702 899.284 696.921C902.34 699.054 905.63 700.676 909.156 701.785C912.799 702.894 916.442 703.449 920.085 703.449C923.14 703.449 925.726 703.022 927.841 702.169C929.956 701.23 931.014 699.78 931.014 697.817C931.014 696.622 930.426 695.598 929.251 694.745C928.194 693.892 926.019 692.91 922.729 691.801C919.438 690.692 914.444 689.198 907.745 687.321C904.807 686.468 901.399 685.316 897.521 683.865C893.761 682.414 890.118 680.537 886.592 678.233C883.184 675.929 880.305 673.113 877.955 669.785C875.722 666.457 874.605 662.532 874.605 658.009C874.605 652.121 876.779 647.172 881.128 643.161C885.476 639.15 891.234 636.121 898.403 634.073C905.571 632.025 913.445 631.001 922.024 631.001C931.308 631.001 939.24 632.025 945.821 634.073C952.52 636.121 957.984 638.681 962.215 641.753C966.563 644.825 969.854 647.897 972.086 650.969L943.353 662.489C941.473 660.356 939.358 658.692 937.007 657.497C934.775 656.217 932.483 655.278 930.133 654.681C927.782 654.084 925.491 653.785 923.258 653.785C920.555 653.785 918.322 654.126 916.559 654.809C914.914 655.492 914.091 656.558 914.091 658.009C914.091 659.801 915.267 661.294 917.617 662.489C920.085 663.598 923.317 664.665 927.312 665.689C931.308 666.628 935.715 667.737 940.533 669.017C945.469 670.297 949.876 671.833 953.754 673.625C957.632 675.332 960.922 677.337 963.625 679.641C966.446 681.945 968.561 684.548 969.971 687.449C971.381 690.265 972.086 693.422 972.086 696.921C972.086 701.87 970.676 706.265 967.856 710.105C965.035 713.86 961.216 716.974 956.398 719.449C951.697 721.924 946.35 723.801 940.357 725.081C934.363 726.361 928.194 727.001 921.848 727.001C913.034 727.001 904.807 725.934 897.169 723.801C889.648 721.753 883.125 718.894 877.602 715.225C872.079 711.556 867.907 707.46 865.086 702.937L891.175 689.113Z" fill="#3247E6"/>
<path d="M808.928 703.001V689.287H858.482V665.972H808.928V655.001H862.086V631.001H808.928H798.477H771.086V727.001H798.477H808.928H862.086V703.001H808.928Z" fill="#3247E6"/>
<path d="M675.515 631.001H648.086V727.001H675.515H689.41H697.71C712.387 727.001 724.959 725.081 735.425 721.241C746.011 717.401 754.071 711.915 759.605 704.784C765.259 697.561 768.086 688.967 768.086 679.001C768.086 668.944 765.259 660.349 759.605 653.218C754.071 646.087 746.011 640.601 735.425 636.761C724.959 632.921 712.387 631.001 697.71 631.001H689.41H675.515ZM689.41 700.944V657.058H695.906C699.395 657.058 702.944 657.287 706.553 657.744C710.162 658.201 713.47 659.161 716.477 660.624C719.485 662.087 721.891 664.281 723.695 667.207C725.62 670.132 726.583 674.064 726.583 679.001C726.583 683.938 725.62 687.869 723.695 690.795C721.891 693.721 719.485 695.915 716.477 697.378C713.47 698.841 710.162 699.801 706.553 700.258C702.944 700.715 699.395 700.944 695.906 700.944H689.41Z" fill="#3247E6"/>
<path fill-rule="evenodd" clip-rule="evenodd" d="M1210.91 396.2V378.371H1219.12C1221.9 378.371 1224.19 378.737 1225.98 379.468C1227.77 380.108 1229.11 381.114 1230.01 382.486C1231 383.766 1231.5 385.366 1231.5 387.286C1231.5 389.114 1231 390.714 1230.01 392.086C1229.11 393.457 1227.77 394.508 1225.98 395.24C1224.19 395.88 1221.9 396.2 1219.12 396.2H1210.91ZM1210.91 449V418.828H1215.44L1234.04 449H1272.09L1247.1 414.544C1253.52 411.712 1258.22 407.838 1261.19 402.92C1264.28 397.891 1265.82 392.223 1265.82 385.914C1265.82 379.514 1264.28 373.846 1261.19 368.908C1258.21 363.971 1253.49 360.086 1247.02 357.251C1240.65 354.417 1232.35 353 1222.1 353H1210.91H1199.27H1178.09V449H1210.91Z" fill="#3247E6"/>
<path d="M1129.52 425V411.286H1172V387.971H1129.52V377H1175.09V353H1129.52H1120.56H1097.09V449H1120.56H1129.52H1175.09V425H1129.52Z" fill="#3247E6"/>
<path d="M993.351 353H972.086V449H1005.03V418.828H1050.21C1060.49 418.828 1068.83 417.503 1075.22 414.851C1081.71 412.2 1086.45 408.406 1089.44 403.468C1092.54 398.531 1094.09 392.68 1094.09 385.914C1094.09 379.057 1092.54 373.206 1089.44 368.36C1086.45 363.423 1081.71 359.628 1075.22 356.977C1068.83 354.326 1060.49 353 1050.21 353H1005.03H993.351ZM1005.03 394.828V377H1050.21C1054.3 377 1057.4 377.777 1059.49 379.331C1061.59 380.886 1062.64 383.08 1062.64 385.914C1062.64 388.748 1061.59 390.943 1059.49 392.497C1057.4 394.051 1054.3 394.828 1050.21 394.828H1005.03Z" fill="#3247E6"/>
<path d="M1190.74 297.32C1190.74 301.944 1191.68 306.024 1193.56 309.56C1195.45 313.096 1198.12 315.861 1201.59 317.856C1205.06 319.76 1209.23 320.712 1214.09 320.712C1218.94 320.712 1223.11 319.76 1226.58 317.856C1230.05 315.861 1232.73 313.096 1234.61 309.56C1236.49 306.024 1237.44 301.944 1237.44 297.32C1237.44 292.605 1236.54 288.525 1234.76 285.08C1232.97 281.544 1230.35 278.824 1226.88 276.92C1223.51 274.925 1219.24 273.928 1214.09 273.928C1209.23 273.928 1205.06 274.925 1201.59 276.92C1198.12 278.824 1195.45 281.544 1193.56 285.08C1191.68 288.525 1190.74 292.605 1190.74 297.32ZM1156.09 297.32C1156.09 289.704 1157.57 282.813 1160.55 276.648C1163.52 270.483 1167.64 265.179 1172.89 260.736C1178.15 256.293 1184.29 252.893 1191.33 250.536C1198.37 248.179 1205.96 247 1214.09 247C1222.41 247 1230.1 248.179 1237.14 250.536C1244.18 252.893 1250.32 256.293 1255.58 260.736C1260.83 265.179 1264.9 270.483 1267.77 276.648C1270.65 282.813 1272.09 289.704 1272.09 297.32C1272.09 304.936 1270.65 311.917 1267.77 318.264C1265 324.52 1261.03 329.96 1255.88 334.584C1250.72 339.208 1244.57 342.744 1237.44 345.192C1230.4 347.731 1222.61 349 1214.09 349C1205.56 349 1197.73 347.731 1190.59 345.192C1183.55 342.744 1177.45 339.208 1172.3 334.584C1167.14 329.96 1163.13 324.52 1160.25 318.264C1157.47 311.917 1156.09 304.936 1156.09 297.32Z" fill="#3247E6"/>
<path d="M1051.09 251H1083.94V321.628H1153.09V347H1051.09V251Z" fill="#3247E6"/>
<path d="M1003.69 323V309.286H1045.08V285.971H1003.69V275H1048.09V251H1003.69H994.962H972.086V347H994.962H1003.69H1048.09V323H1003.69Z" fill="#3247E6"/>
<path d="M1213.09 192.776L1233.25 149H1272.09L1213.09 245L1154.09 149H1192.92L1213.09 192.776Z" fill="#3247E6"/>
<path d="M1106.69 221V207.286H1148.08V183.971H1106.69V173H1151.09V149H1106.69H1097.96H1075.09V245H1097.96H1106.69H1151.09V221H1106.69Z" fill="#3247E6"/>
<path d="M994.944 149H972.086V245H994.944H1006.52H1013.44C1025.67 245 1036.15 243.08 1044.87 239.24C1053.69 235.4 1060.41 229.914 1065.02 222.783C1069.73 215.56 1072.09 206.966 1072.09 197C1072.09 186.943 1069.73 178.349 1065.02 171.217C1060.41 164.086 1053.69 158.6 1044.87 154.76C1036.15 150.92 1025.67 149 1013.44 149H1006.52H994.944ZM1006.52 218.943V175.057H1011.94C1014.84 175.057 1017.8 175.286 1020.81 175.743C1023.82 176.2 1026.57 177.16 1029.08 178.623C1031.59 180.086 1033.59 182.28 1035.09 185.206C1036.7 188.131 1037.5 192.063 1037.5 197C1037.5 201.937 1036.7 205.869 1035.09 208.794C1033.59 211.72 1031.59 213.914 1029.08 215.377C1026.57 216.84 1023.82 217.8 1020.81 218.257C1017.8 218.714 1014.84 218.943 1011.94 218.943H1006.52Z" fill="#3247E6"/>
<path d="M1171.71 856.487C1171.71 863.737 1173.28 869.846 1176.43 874.813C1179.71 879.647 1183.97 883.272 1189.22 885.688C1194.6 888.105 1200.5 889.313 1206.93 889.313C1213.49 889.313 1219.13 888.441 1223.85 886.695C1228.57 884.95 1232.71 882.802 1236.25 880.251C1239.92 877.566 1243.2 874.813 1246.09 871.994V917.508C1240.71 921.267 1234.8 924.422 1228.38 926.973C1222.08 929.658 1213.88 931.001 1203.78 931.001C1191.84 931.001 1180.95 929.256 1171.12 925.765C1161.28 922.274 1152.88 917.239 1145.93 910.661C1138.98 904.082 1133.6 896.228 1129.79 887.098C1125.99 877.968 1124.09 867.765 1124.09 856.487C1124.09 845.209 1125.99 835.005 1129.79 825.876C1133.6 816.746 1138.98 808.892 1145.93 802.313C1152.88 795.734 1161.28 790.7 1171.12 787.209C1180.95 783.718 1191.84 781.973 1203.78 781.973C1213.88 781.973 1222.08 783.248 1228.38 785.799C1234.8 788.35 1240.71 791.572 1246.09 795.466V840.98C1243.2 838.16 1239.92 835.408 1236.25 832.723C1232.71 830.038 1228.57 827.89 1223.85 826.278C1219.13 824.533 1213.49 823.66 1206.93 823.66C1200.5 823.66 1194.6 824.869 1189.22 827.285C1183.97 829.702 1179.71 833.394 1176.43 838.362C1173.28 843.195 1171.71 849.237 1171.71 856.487ZM1229.36 739.681L1193.94 769.889L1172.3 759.82L1201.81 727.598L1229.36 739.681Z" fill="#0D0D0D"/>
<path d="M1021.09 617.001H1066.38V669.928L1108.72 617.001H1159.13L1105.37 684.007L1162.09 760.001H1109.7L1066.38 702.036V760.001H1021.09V617.001Z" fill="#0D0D0D"/>
<path d="M1030.08 468.001H1014.89H984.908V526.001H972.087V554.001H984.908V611.001H1014.89H1030.08H1039.16C1055.2 611.001 1068.94 608.141 1080.38 602.421C1091.95 596.701 1100.77 588.529 1106.82 577.907C1113 567.148 1116.09 554.346 1116.09 539.501C1116.09 524.52 1113 511.718 1106.82 501.095C1100.77 490.472 1091.95 482.301 1080.38 476.581C1068.94 470.861 1055.2 468.001 1039.16 468.001H1030.08ZM1030.08 526.001V506.815H1037.18C1041 506.815 1044.88 507.156 1048.82 507.837C1052.77 508.518 1056.38 509.948 1059.67 512.127C1062.96 514.306 1065.59 517.574 1067.56 521.932C1069.66 526.29 1070.72 532.147 1070.72 539.501C1070.72 546.855 1069.66 552.711 1067.56 557.069C1065.59 561.428 1062.96 564.696 1059.67 566.875C1056.38 569.054 1052.77 570.484 1048.82 571.165C1044.88 571.846 1041 572.187 1037.18 572.187H1030.08V554.001H1045.09L1045.07 526.001H1030.08Z" fill="#0D0D0D"/>
<path d="M1036.24 849.729C1031.89 842.787 1027.92 836.745 1024.34 831.602L992.086 845.101C996.95 851.786 1001.17 858.214 1004.76 864.385C1008.34 870.299 1011.8 876.47 1015.12 882.898C1018.71 889.326 1022.29 896.654 1025.87 904.881L1059.28 889.84C1056.21 883.926 1052.62 877.498 1048.53 870.556C1044.69 863.614 1040.59 856.671 1036.24 849.729Z" fill="#0D0D0D"/>
<path d="M1086.92 828.131C1082.57 821.446 1078.47 815.532 1074.63 810.39L1042.77 825.431C1047.63 831.602 1051.85 837.645 1055.44 843.558C1059.28 849.215 1062.99 855.257 1066.57 861.685C1070.41 867.856 1074.38 875.056 1078.47 883.283L1110.73 867.471C1107.91 861.557 1104.33 855.257 1099.98 848.572C1095.88 841.63 1091.53 834.816 1086.92 828.131Z" fill="#0D0D0D"/>
<path d="M855.36 561.07L867 534.092L878.64 561.07H855.36ZM848.327 592.881H885.43L895.266 611.001H944L867 460.001L790 611.001H838.734L848.327 592.881Z" fill="#0D0D0D"/>
<path d="M745.158 461.137H790V611.001L692.842 539.23V611.001H648V454.001L745.158 525.772V461.137Z" fill="#0D0D0D"/>
<path d="M811.086 157.464L856.341 149.001L880.716 287.31L835.461 295.774L811.086 157.464Z" fill="#0D0D0D"/>
<path d="M702.508 240.412L695.267 298.001H648L674.148 150.001L736.5 226.115L798.852 150.001L825 298.001H777.733L770.492 240.412L736.5 284.913L702.508 240.412Z" fill="#0D0D0D"/>
<path d="M648 305.001H691.564V410.208H743V305.001H772.929H784.35H900V340.751H784.35V357.192L900 358.189V392.917L784.35 391.921V412.251H900V448.001H784.35H772.929H748H743H648V305.001Z" fill="#0D0D0D"/>
<path d="M1218.09 614.421C1220.93 613.647 1223.7 612.716 1226.38 611.628C1235.8 607.997 1243.91 602.753 1250.71 595.896C1257.51 589.038 1262.74 580.97 1266.4 571.692C1270.19 562.279 1272.09 551.925 1272.09 540.63C1272.09 529.335 1270.19 519.115 1266.4 509.971C1262.61 500.828 1257.24 492.961 1250.31 486.373C1243.38 479.784 1235.27 474.741 1225.99 471.245C1216.71 467.749 1206.57 466.001 1195.59 466.001C1184.86 466.001 1174.86 467.749 1165.57 471.245C1156.29 474.741 1148.18 479.784 1141.25 486.373C1134.32 492.961 1128.89 500.828 1124.97 509.971C1121.05 519.115 1119.09 529.335 1119.09 540.63C1119.09 551.925 1120.92 562.279 1124.58 571.692C1128.37 580.97 1133.67 589.038 1140.47 595.896C1147.27 602.753 1155.31 607.997 1164.59 611.628C1167.35 612.729 1170.18 613.669 1173.09 614.448V705.111H1218.09V614.421ZM1222.66 558.783C1221.4 561.433 1219.88 563.792 1218.09 565.859V542.593H1173.09V565.859C1171.3 563.792 1169.77 561.433 1168.52 558.783C1166.03 553.539 1164.79 547.488 1164.79 540.63C1164.79 533.638 1166.03 527.587 1168.52 522.477C1171 517.233 1174.53 513.199 1179.11 510.375C1183.69 507.417 1189.18 505.937 1195.59 505.937C1202.39 505.937 1208.01 507.417 1212.46 510.375C1217.03 513.199 1220.5 517.233 1222.85 522.477C1225.21 527.587 1226.38 533.638 1226.38 540.63C1226.38 547.488 1225.14 553.539 1222.66 558.783Z" fill="#0D0D0D"/>
</svg>
