<svg width="393" height="852" viewBox="0 0 393 852" fill="none" xmlns="http://www.w3.org/2000/svg">
<path d="M168.064 588.529V579.959H172.722C174.303 579.959 175.602 580.134 176.618 580.486C177.634 580.794 178.396 581.277 178.905 581.936C179.469 582.552 179.752 583.321 179.752 584.244C179.752 585.123 179.469 585.892 178.905 586.551C178.396 587.21 177.634 587.716 176.618 588.067C175.602 588.375 174.303 588.529 172.722 588.529H168.064ZM168.064 613.91V599.406H170.633L181.191 613.91H202.789L188.603 597.347C192.251 595.986 194.919 594.123 196.606 591.759C198.356 589.342 199.232 586.617 199.232 583.584C199.232 580.508 198.356 577.783 196.606 575.41C194.912 573.036 192.23 571.169 188.56 569.806C184.946 568.444 180.232 567.762 174.416 567.762H168.064H161.457H149.431V613.91H168.064Z" fill="#3247E6"/>
<path d="M65.2167 602.373V595.781H146.257V584.573H65.2167V579.299H147.988V567.762H65.2167H60.1965H47.04V613.91H60.1965H65.2167H147.988V602.373H65.2167Z" fill="#3247E6"/>
<path d="M183.535 518.731H202.789V567.762L160.512 544.469V564.878H141.259V516.808L183.535 540.101V518.731Z" fill="#3247E6"/>
<path d="M104.472 548.265V538.42H138.659C139.149 542.112 138.72 545.558 137.372 548.757C136.086 551.957 133.972 554.767 131.031 557.187C128.09 559.607 124.384 561.494 119.911 562.848C115.439 564.201 110.292 564.878 104.472 564.878C99.08 564.878 94.148 564.324 89.6754 563.217C85.2029 562.109 81.3124 560.53 78.0039 558.479C74.7567 556.428 72.2141 553.967 70.3761 551.095C68.5993 548.224 67.7109 545.025 67.7109 541.497C67.7109 537.969 68.6606 534.811 70.5599 532.021C72.4592 529.191 75.0937 526.791 78.4634 524.822C81.8944 522.853 85.8768 521.356 90.4106 520.33C95.0057 519.264 99.999 518.731 105.391 518.731C110.292 518.731 114.611 519.223 118.349 520.207C122.147 521.192 125.456 522.505 128.274 524.145C131.154 525.745 133.666 527.55 135.81 529.56L116.97 535.221C115.867 533.867 114.428 532.677 112.651 531.652C110.874 530.626 108.454 530.114 105.391 530.114C102.388 530.114 99.6314 530.544 97.1195 531.406C94.6075 532.226 92.5856 533.477 91.0539 535.159C89.5835 536.841 88.8483 538.954 88.8483 541.497C88.8483 543.999 89.5222 546.153 90.8701 547.957C92.2793 549.762 94.2092 551.136 96.6599 552.08C99.1719 553.023 102.082 553.495 105.391 553.495C107.229 553.495 108.883 553.372 110.353 553.126C111.824 552.88 113.08 552.531 114.121 552.08C115.224 551.629 116.174 551.075 116.97 550.419C117.767 549.762 118.441 549.044 118.992 548.265H104.472Z" fill="#3247E6"/>
<path d="M47.04 518.731H66.2682V564.878H47.04V518.731Z" fill="#3247E6"/>
<path d="M163.896 497.634C165.025 499.069 166.325 500.32 167.793 501.387C169.262 502.413 170.844 503.192 172.539 503.725C174.29 504.258 176.041 504.525 177.792 504.525C179.261 504.525 180.504 504.32 181.521 503.91C182.538 503.459 183.046 502.761 183.046 501.818C183.046 501.243 182.764 500.751 182.199 500.341C181.69 499.931 180.645 499.459 179.063 498.926C177.482 498.393 175.081 497.675 171.861 496.772C170.449 496.362 168.81 495.808 166.946 495.111C165.138 494.414 163.387 493.511 161.692 492.404C160.054 491.296 158.67 489.942 157.54 488.343C156.467 486.743 155.93 484.856 155.93 482.682C155.93 479.852 156.975 477.472 159.066 475.544C161.156 473.617 163.924 472.16 167.37 471.176C170.816 470.191 174.601 469.699 178.724 469.699C183.187 469.699 187 470.191 190.164 471.176C193.384 472.16 196.011 473.391 198.044 474.868C200.135 476.344 201.716 477.821 202.79 479.298L188.978 484.835C188.074 483.81 187.057 483.01 185.927 482.436C184.854 481.82 183.752 481.369 182.622 481.082C181.493 480.795 180.391 480.651 179.318 480.651C178.018 480.651 176.945 480.816 176.098 481.144C175.307 481.472 174.911 481.985 174.911 482.682C174.911 483.543 175.476 484.261 176.606 484.835C177.792 485.369 179.346 485.881 181.267 486.374C183.187 486.825 185.306 487.358 187.622 487.973C189.994 488.589 192.113 489.327 193.977 490.189C195.841 491.009 197.423 491.973 198.722 493.08C200.078 494.188 201.095 495.439 201.773 496.834C202.451 498.187 202.79 499.705 202.79 501.387C202.79 503.766 202.112 505.879 200.756 507.725C199.4 509.529 197.564 511.027 195.248 512.216C192.989 513.406 190.418 514.308 187.537 514.924C184.656 515.539 181.69 515.847 178.64 515.847C174.403 515.847 170.449 515.334 166.777 514.308C163.161 513.324 160.026 511.95 157.371 510.186C154.716 508.422 152.71 506.453 151.354 504.279L163.896 497.634Z" fill="#3247E6"/>
<path d="M124.359 504.31V497.717H148.18V486.51H124.359V481.236H149.912V469.699H124.359H119.334H106.168V515.847H119.334H124.359H149.912V504.31H124.359Z" fill="#3247E6"/>
<path d="M60.225 469.699H47.04V515.847H60.225H66.9043H70.8945C77.9496 515.847 83.9928 514.924 89.0239 513.078C94.1128 511.232 97.9874 508.595 100.648 505.167C103.365 501.695 104.724 497.563 104.724 492.773C104.724 487.938 103.365 483.807 100.648 480.379C97.9874 476.951 94.1128 474.314 89.0239 472.468C83.9928 470.622 77.9496 469.699 70.8945 469.699H66.9043H60.225ZM66.9043 503.321V482.225H70.0271C71.7041 482.225 73.4101 482.335 75.1449 482.554C76.8798 482.774 78.4701 483.236 79.9158 483.939C81.3615 484.642 82.5181 485.697 83.3856 487.103C84.3108 488.51 84.7734 490.4 84.7734 492.773C84.7734 495.146 84.3108 497.036 83.3856 498.442C82.5181 499.849 81.3615 500.904 79.9158 501.607C78.4701 502.31 76.8798 502.771 75.1449 502.991C73.4101 503.211 71.7041 503.321 70.0271 503.321H66.9043Z" fill="#3247E6"/>
<path fill-rule="evenodd" clip-rule="evenodd" d="M317.593 356.83V348.259H321.538C322.876 348.259 323.976 348.435 324.837 348.787C325.698 349.094 326.343 349.578 326.773 350.237C327.252 350.852 327.491 351.622 327.491 352.544C327.491 353.423 327.252 354.193 326.773 354.852C326.343 355.511 325.698 356.017 324.837 356.368C323.976 356.676 322.876 356.83 321.538 356.83H317.593ZM317.593 382.211V367.707H319.768L328.71 382.211H347L334.986 365.648C338.076 364.287 340.335 362.424 341.764 360.06C343.246 357.643 343.987 354.918 343.987 351.885C343.987 348.809 343.246 346.084 341.764 343.711C340.329 341.337 338.058 339.469 334.95 338.107C331.89 336.744 327.897 336.063 322.972 336.063H317.593H311.998H301.813V382.211H317.593Z" fill="#3247E6"/>
<path d="M278.469 370.674V364.081H298.887V352.874H278.469V347.6H300.372V336.063H278.469H274.163H262.877V382.211H274.163H278.469H300.372V370.674H278.469Z" fill="#3247E6"/>
<path d="M213.011 336.063H202.789V382.211H218.626V367.707H240.343C245.286 367.707 249.293 367.07 252.365 365.795C255.484 364.521 257.764 362.697 259.203 360.324C260.691 357.95 261.435 355.138 261.435 351.885C261.435 348.589 260.691 345.776 259.203 343.447C257.764 341.074 255.484 339.25 252.365 337.975C249.293 336.701 245.286 336.063 240.343 336.063H218.626H213.011ZM218.626 356.17V347.6H240.343C242.31 347.6 243.798 347.974 244.806 348.721C245.814 349.468 246.318 350.523 246.318 351.885C246.318 353.248 245.814 354.302 244.806 355.05C243.798 355.797 242.31 356.17 240.343 356.17H218.626Z" fill="#3247E6"/>
<path d="M307.895 309.298C307.895 311.521 308.348 313.482 309.254 315.182C310.159 316.881 311.446 318.211 313.114 319.17C314.782 320.085 316.784 320.542 319.119 320.542C321.454 320.542 323.456 320.085 325.124 319.17C326.792 318.211 328.079 316.881 328.985 315.182C329.89 313.482 330.343 311.521 330.343 309.298C330.343 307.031 329.914 305.07 329.056 303.414C328.198 301.714 326.935 300.407 325.267 299.492C323.647 298.533 321.597 298.053 319.119 298.053C316.784 298.053 314.782 298.533 313.114 299.492C311.446 300.407 310.159 301.714 309.254 303.414C308.348 305.07 307.895 307.031 307.895 309.298ZM291.238 309.298C291.238 305.637 291.953 302.324 293.383 299.361C294.813 296.397 296.791 293.847 299.317 291.712C301.843 289.576 304.797 287.942 308.181 286.809C311.565 285.675 315.211 285.109 319.119 285.109C323.122 285.109 326.816 285.675 330.2 286.809C333.584 287.942 336.539 289.576 339.065 291.712C341.591 293.847 343.545 296.397 344.927 299.361C346.309 302.324 347 305.637 347 309.298C347 312.959 346.309 316.315 344.927 319.366C343.592 322.373 341.686 324.988 339.208 327.211C336.729 329.434 333.774 331.133 330.343 332.31C326.959 333.53 323.218 334.141 319.119 334.141C315.02 334.141 311.255 333.53 307.824 332.31C304.44 331.133 301.509 329.434 299.031 327.211C296.552 324.988 294.622 322.373 293.24 319.366C291.906 316.315 291.238 312.959 291.238 309.298Z" fill="#3247E6"/>
<path d="M240.764 287.032H256.555V320.983H289.795V333.179H240.764V287.032Z" fill="#3247E6"/>
<path d="M217.981 321.642V315.05H237.876V303.842H217.981V298.568H239.323V287.032H217.981H213.785H202.789V333.179H213.785H217.981H239.323V321.642H217.981Z" fill="#3247E6"/>
<path d="M318.638 259.043L328.331 238H346.999L318.638 284.147L290.276 238H308.945L318.638 259.043Z" fill="#3247E6"/>
<path d="M267.494 272.611V266.018H287.388V254.811H267.494V249.537H288.835V238H267.494H263.298H252.302V284.147H263.298H267.494H288.835V272.611H267.494Z" fill="#3247E6"/>
<path d="M213.777 238H202.789V284.147H213.777H219.343H222.668C228.547 284.147 233.583 283.224 237.776 281.379C242.016 279.533 245.245 276.896 247.462 273.468C249.727 269.996 250.859 265.864 250.859 261.074C250.859 256.239 249.727 252.108 247.462 248.68C245.245 245.252 242.016 242.615 237.776 240.769C233.583 238.923 228.547 238 222.668 238H219.343H213.777ZM219.343 271.622V250.526H221.945C223.342 250.526 224.764 250.636 226.21 250.855C227.656 251.075 228.981 251.537 230.186 252.24C231.39 252.943 232.354 253.998 233.077 255.404C233.848 256.811 234.234 258.7 234.234 261.074C234.234 263.447 233.848 265.337 233.077 266.743C232.354 268.15 231.39 269.204 230.186 269.908C228.981 270.611 227.656 271.072 226.21 271.292C224.764 271.512 223.342 271.622 221.945 271.622H219.343Z" fill="#3247E6"/>
<path d="M298.746 578.091C298.746 581.576 299.503 584.512 301.016 586.9C302.593 589.224 304.642 590.966 307.165 592.128C309.75 593.29 312.588 593.871 315.678 593.871C318.831 593.871 321.542 593.451 323.813 592.612C326.083 591.773 328.069 590.74 329.772 589.514C331.537 588.223 333.114 586.9 334.501 585.545V607.424C331.916 609.231 329.078 610.747 325.988 611.974C322.961 613.265 319.02 613.91 314.164 613.91C308.426 613.91 303.192 613.071 298.462 611.393C293.733 609.715 289.697 607.295 286.355 604.132C283.013 600.97 280.427 597.194 278.599 592.806C276.77 588.417 275.855 583.512 275.855 578.091C275.855 572.67 276.77 567.765 278.599 563.376C280.427 558.987 283.013 555.212 286.355 552.049C289.697 548.887 293.733 546.467 298.462 544.789C303.192 543.111 308.426 542.272 314.164 542.272C319.02 542.272 322.961 542.885 325.988 544.111C329.078 545.337 331.916 546.886 334.501 548.758V570.637C333.114 569.281 331.537 567.958 329.772 566.667C328.069 565.377 326.083 564.344 323.813 563.57C321.542 562.731 318.831 562.311 315.678 562.311C312.588 562.311 309.75 562.892 307.165 564.054C304.642 565.215 302.593 566.99 301.016 569.378C299.503 571.701 298.746 574.606 298.746 578.091ZM326.461 521.942L309.435 536.463L299.03 531.623L313.219 516.133L326.461 521.942Z" fill="#0D0D0D"/>
<path d="M226.343 462.969H248.115V488.411L268.468 462.969H292.702L266.859 495.179L294.122 531.71H268.941L248.115 503.846V531.71H226.343V462.969Z" fill="#0D0D0D"/>
<path d="M230.667 391.345H223.366H208.953V419.225H202.789V432.685H208.953V460.085H223.366H230.667H235.029C242.742 460.085 249.348 458.71 254.847 455.961C260.41 453.211 264.646 449.283 267.554 444.177C270.525 439.005 272.01 432.851 272.01 425.715C272.01 418.514 270.525 412.36 267.554 407.253C264.646 402.147 260.41 398.219 254.847 395.469C249.348 392.72 242.742 391.345 235.029 391.345H230.667ZM230.667 419.225V410.003H234.081C235.914 410.003 237.779 410.167 239.676 410.494C241.572 410.821 243.31 411.509 244.891 412.556C246.471 413.604 247.736 415.175 248.684 417.27C249.695 419.365 250.201 422.18 250.201 425.715C250.201 429.25 249.695 432.065 248.684 434.16C247.736 436.255 246.471 437.826 244.891 438.874C243.31 439.921 241.572 440.609 239.676 440.936C237.779 441.263 235.914 441.427 234.081 441.427H230.667V432.685H237.88L237.874 419.225H230.667Z" fill="#0D0D0D"/>
<path d="M233.628 574.842C231.536 571.505 229.629 568.601 227.907 566.129L212.403 572.618C214.741 575.831 216.771 578.921 218.494 581.887C220.217 584.73 221.878 587.696 223.477 590.786C225.2 593.876 226.922 597.399 228.645 601.354L244.702 594.124C243.225 591.281 241.503 588.191 239.534 584.854C237.689 581.517 235.72 578.179 233.628 574.842Z" fill="#0D0D0D"/>
<path d="M257.991 564.46C255.899 561.246 253.93 558.404 252.085 555.932L236.766 563.162C239.104 566.129 241.134 569.033 242.856 571.876C244.702 574.595 246.486 577.5 248.209 580.59C250.054 583.556 251.961 587.017 253.93 590.972L269.434 583.371C268.08 580.528 266.357 577.5 264.266 574.286C262.297 570.949 260.205 567.674 257.991 564.46Z" fill="#0D0D0D"/>
<path d="M146.678 436.083L152.273 423.115L157.868 436.083H146.678ZM143.297 451.375H161.133L165.86 460.085H189.287L152.273 387.499L115.259 460.085H138.685L143.297 451.375Z" fill="#0D0D0D"/>
<path d="M93.7041 388.045H115.26V460.085L68.5558 425.584V460.085H47V384.615L93.7041 419.115V388.045Z" fill="#0D0D0D"/>
<path d="M125.396 242.069L147.149 238L158.867 304.486L137.113 308.554L125.396 242.069Z" fill="#0D0D0D"/>
<path d="M73.2022 281.942L69.7214 309.625H47L59.5693 238.481L89.5423 275.07L119.515 238.481L132.084 309.625H109.363L105.882 281.942L89.5423 303.334L73.2022 281.942Z" fill="#0D0D0D"/>
<path d="M47 312.99H67.9415V363.563H92.6668V312.99H107.054H112.544H168.137V330.175H112.544V338.079L168.137 338.558V355.252L112.544 354.773V364.545H168.137V381.731H112.544H107.054H95.0703H92.6668H47V312.99Z" fill="#0D0D0D"/>
<path d="M321.042 461.729C322.411 461.357 323.74 460.91 325.03 460.387C329.556 458.641 333.453 456.12 336.722 452.824C339.991 449.527 342.505 445.649 344.265 441.189C346.088 436.664 347 431.687 347 426.257C347 420.828 346.088 415.915 344.265 411.52C342.442 407.125 339.865 403.343 336.533 400.176C333.202 397.009 329.304 394.585 324.841 392.904C320.378 391.223 315.506 390.383 310.226 390.383C305.071 390.383 300.262 391.223 295.799 392.904C291.336 394.585 287.439 397.009 284.107 400.176C280.775 403.343 278.167 407.125 276.281 411.52C274.395 415.915 273.452 420.828 273.452 426.257C273.452 431.687 274.332 436.664 276.092 441.189C277.915 445.649 280.461 449.527 283.73 452.824C286.999 456.12 290.865 458.641 295.328 460.387C296.651 460.916 298.012 461.367 299.41 461.742V505.324H321.042V461.729ZM323.238 434.984C322.635 436.258 321.902 437.392 321.042 438.385V427.201H299.41V438.385C298.55 437.392 297.817 436.258 297.214 434.984C296.019 432.463 295.422 429.554 295.422 426.257C295.422 422.896 296.019 419.988 297.214 417.531C298.408 415.01 300.105 413.071 302.305 411.714C304.506 410.292 307.146 409.581 310.226 409.581C313.495 409.581 316.198 410.292 318.335 411.714C320.535 413.071 322.201 415.01 323.333 417.531C324.464 419.988 325.03 422.896 325.03 426.257C325.03 429.554 324.433 432.463 323.238 434.984Z" fill="#0D0D0D"/>
</svg>
