<svg width="53" height="64" viewBox="0 0 53 64" fill="none" xmlns="http://www.w3.org/2000/svg">
<path d="M11.2587 0C13.25 0.257028 15.6498 0.642571 18.4581 1.15663C21.3174 1.61928 24.33 2.15904 27.4957 2.7759C30.7124 3.39277 33.9037 4.08675 37.0694 4.85783C40.2861 5.57751 43.2476 6.29719 45.9538 7.01687C48.711 7.73655 51.0597 8.43052 53 9.0988L49.0939 18.7374C47.3068 18.0691 45.0857 17.3751 42.4306 16.6554C39.7755 15.8843 36.8907 15.1133 33.776 14.3422C30.6614 13.5711 27.5212 12.8514 24.3555 12.1831C21.1898 11.5149 18.1517 10.898 15.2413 10.3325C12.382 9.76707 9.85453 9.35582 7.65896 9.0988L11.2587 0ZM7.73555 20.7422C10.4928 21.2048 13.6585 21.796 17.2327 22.5157C20.8068 23.2353 24.4831 24.0321 28.2616 24.906C32.04 25.7285 35.6397 26.6024 39.0607 27.5277C42.4817 28.4016 45.3921 29.2755 47.7919 30.1494L44.039 39.788C41.8434 38.9141 39.0607 38.0145 35.6908 37.0892C32.3719 36.1639 28.8232 35.2386 25.0448 34.3133C21.3174 33.388 17.6156 32.5655 13.9393 31.8458C10.263 31.0747 7.02071 30.4835 4.21243 30.0723L7.73555 20.7422ZM3.82948 42.7952C6.43353 43.2064 9.39499 43.7462 12.7139 44.4145C16.0328 45.0827 19.4793 45.8281 23.0535 46.6506C26.6787 47.4731 30.2274 48.3213 33.6994 49.1952C37.1715 50.0691 40.3882 50.943 43.3497 51.8169C46.3622 52.6908 48.9152 53.539 51.0087 54.3614L46.7962 64C44.7539 63.1261 42.2264 62.2265 39.2139 61.3012C36.2013 60.4273 32.9335 59.5534 29.4104 58.6795C25.8873 57.7542 22.3386 56.906 18.7645 56.1349C15.1903 55.3124 11.7693 54.5928 8.50144 53.9759C5.28468 53.359 2.45087 52.8707 0 52.5108L3.82948 42.7952Z" fill="#0D0D0D"/>
</svg>
